<?xml version="1.0" encoding="UTF-8" standalone="no"?>
<svg
   width="129.12215pt"
   height="63.731224pt"
   viewBox="0 0 129.12215 63.731224"
   version="1.1"
   id="svg34"
   content="%3Cmxfile%20host%3D%22app.diagrams.net%22%20modified%3D%222022-12-18T10%3A03%3A14.622Z%22%20agent%3D%225.0%20(X11%3B%20Linux%20x86_64)%20AppleWebKit%2F537.36%20(KHTML%2C%20like%20Gecko)%20Chrome%2F108.0.0.0%20Safari%2F537.36%22%20version%3D%2220.7.2%22%20etag%3D%22SAeFmlGF_akSxLG7NUrs%22%20type%3D%22google%22%3E%3Cdiagram%20id%3D%22WusCi_8WzdcBIsIP1u7M%22%3E7Vldd6JIE%2F41uZyc5kvjpYpJmLVJDJqM3iEQBEFcRAV%2B%2FVY13QJqJjNn8%2B55z551ksGnuru6q56q6m5yowzj%2FCG1tyuauF50IxM3v1H0G1lW5Q78j4KiEkgdqVtJ%2FDRwuawWWEHpcSHh0n3gertWxyxJoizYtoVOstl4TtaS2WmaHNvd3pOoPevW9r0LgeXY0aX0LXCzVSW900gtf%2FQCfyVmlghviW3RmQt2K9tNjg2RMrpRhmmSZNW3OB96ETpP%2BKUad%2F9B62lhqbfJfmWAXA042NGe28bXlRXCWD9N9tsbZRAnB3vJhBKg1NsFZRMnmZ01MFDuNbHnBk3ImWlIWoxxee2ng5dmXv6hkdLJdRBzXhJ7WVpAFz6gd8e18HjrSuSWEFmrhMeaQUmSbnv1p3PHvbFqkClItnkM%2BafpajfDF%2B7p615XLpzsuRBgHG6SDTwGEBpbhNwlScq8vN%2B4nstdlqTZKvGTjR2Nk2TLhaGXZQVPGXufJSBaZXHEWyN76UUD21n7TNUwiVCv7nrv9j4CCwfvySa7t%2BMgQl8Nk30aeCks1fSOvJGrljocX6rYZXaa9THNamO8jSskyyhx1tNVsKnE90EkFscGcv1q1cpRh7WmydoT093ICmGfU4vIRJmNBEZ%2BACACzBHcagLqebNRLziqY5ycxTg5i3FyFuOkHePkIsbJKcaR6w8jmUcceML3uKh7PbhTL7Kz4NBWdS0q%2BdDnJIBJTkkh3bVyQurdqr2ueop9VWsrrBbEdTQLilDL9cgqZNBP9OwgpBzvQg%2FLmJNxv5RE6r%2BjdMk%2FLV3CykaRuuv%2BIzVKu%2BLeDsvvbcvJnT%2F3iSgc33YsXfvQQelsc%2BYa0Q7ffP5kWpbpuQRWtK1lZ1RuMWKYOdoAfsgtLnBI2K8GHYZMeE3WvRRKiISGtvCarKtdUyldmftcJl8RXlV5ZW5ytkj4qTeFOPfxaHW73Mab28zeraHtuAoyz9raDnY4QjOLdScT%2B8pp8xjseA3HmoQaLNQ6LartxsaQGJwOJtjHj%2Bzdjn%2F%2FYAfhdb5qTVLXS89admsvc1Zcya%2FuMsrPdpnmdnAuF5sBpuc77DDXto3Gtgi5m9nBxkvF%2BmCIcBvfRDGNA3BOPwr8DTIQuG7EDAOPBxt%2FkGRZEkPDN%2B2f2kg%2BqSzqTytLt1X%2Bv1UnIiI%2Bmqp1et2L2iMKy1cXm87ntRwGwPHe%2ByDOG1zau2115n8P8iraWxGhXKH7f7w%2FfBSqX8CiJrV38e713bd5xlUvKRSyv0Nh919N4RdQ9U3%2Bf6Hq7r%2Frx3%2FXj98K4b951%2FjgyFpfGbpKIxO037168Fk66m%2Bp%2FbqbSO%2Fz0ieyKYjZq6XLCscbdBcohhN0BeX73cG%2FkQc5JJA8fH405UUxUJdv%2Bd4pSWA%2FvhBHTw5jxVXcQlNooR2c2DnQsH%2Bkw17pxk5gPC62ix%2FucKn4PSPs%2B3TYl%2BjU8M3pqDBC9c6wSGZYg4clbOPG6F5Z%2FDAPy7eZ%2F7L5Hi2svjwOR3tqDQLPGvQXcW%2FvPtR9xtYgcR9fjk4Ja5AXh%2BXmZeXKr%2BVSlqJxDH2sAbXfzGi5MSNjSHy23kfaGRe9GOeb%2F3AjR%2B5lC0sLl%2BC%2B5UMULt60cmH1Yid%2BhTGr73O5B7Ym%2FoRQfxKtfXOoHsfDar0on5GIGqPew3TYz2GtO2NkHhYPs44xkr6%2FDuv5%2F7AG%2BlIZaE4cbezHiQ8%2BKmhQ6YE%2BsHYKY6P9vFDBLjjRDJ4fByv3wfcXcbRb6sC1vNq6D7PAeJj0jDUpzKkDnulrpqVKlNDC1Gf7pyHHBWgvJ3uzAByoCg0Ah5T1fxqqminNS1rAE8ZhPxhX0kAtTejH9FiAuR4%2BT4UJLel0tge5aC%2FN0EcM39k8hOqAg75Gh2pOZ0cY4exBrwxYfppRYuoOrktCDHqJGU5wPsmE8WaNFRrNcxPHjqiQ5U%2F6HHUTXBPoyJ%2BmdG8OAcOcrB3xyC9NHZ4zWGu4xrWJfoANtAX0ziubSgP15WYIeHYEWwymh5YznLfkPszptI82FE%2FVvCcftzk4trGyNbE%2FnSLbM2kcvuo1nkNkO%2F7TFHwFT%2FhVxuHMh3mO4xDbfdXSKYyZKBNYxThcl4ZuKOAjYuiIR%2FA0ZOBWbmAJ5636Ix4h14WhzwjMlQMm0K4a%2BhrmGMFzdITxxVSfA55rhu7I%2BJyUM8TQH9eIzxmszQF9E20cUhjnYKT7pg6%2BLVcGneLaX3Q69aG%2FweU%2B2LIu0RZzOt%2BbaLPA4QzHvcE4mMfVhRzGS7AmBdaEa9Vo9ZQ5VhFP9VGJNgKWKLN1lMNTxnFPTL5WuC9ybqvS9M1rWD29NYFYYrFQYuzQ9TE3p7TCEHN0RqEdKw%2FGM3sWFLmHWMP4hzgVXFd4BvkXstio28EHJvic8Qp8gv9ysEF%2BBU6Rx0nJ%2BAS%2FTxTgSWV8FmjLhNtiYE7kAoOt2hOzSbQDnyweJrwf8FmwdqgsqjTlfGI75KY8KQWfExlzlfOpsPEB6jthgrXgNaRQD1SIByGnBawT4wH0zDAOC8hh0D%2BXRDtiC7iAJ8TtSDVZf9FPcErLSk%2FFKWCCcWpxDNxUnAQ8P9fHipMAaw1wsYYqxLmDDOUcMC4gP%2BctbFbc1FifcI7mFaeQ36xmsZw0iFVxgTarsGaMmxJsgNwDbOFaDWIyrk6Y55zANOe%2BlZ6YzRTjV%2BGcILeYc%2FKUcwK4NBk3J06Q0yYnssn0VJwIDLWBcyM4Ef2Er1lMKA2MPtaAU6j4rEZwOYy3UK%2FghBZNTlBOWY1oYy8wDs%2Fh8eAoi82zjycM%2FLlybWnfisQrjDGewp%2BTXZAFCb7KWPJXF59em5wIjtMfnECra5ezT3dwTnzx%2BCsmIo429aG%2FPpWfv1LJ8BZx%2FrpG6uO%2FyzvaF9zIJK11YPz8QqZcuZApv38hA1j%2Fha86b9Z%2FJ1VGfwE%3D%3C%2Fdiagram%3E%3C%2Fmxfile%3E"
   sodipodi:docname="logo-black.svg"
   inkscape:version="1.2.2 (b0a8486541, 2022-12-01)"
   inkscape:export-filename="logo-black.png"
   inkscape:export-xdpi="248.34439"
   inkscape:export-ydpi="248.34439"
   xmlns:inkscape="http://www.inkscape.org/namespaces/inkscape"
   xmlns:sodipodi="http://sodipodi.sourceforge.net/DTD/sodipodi-0.dtd"
   xmlns="http://www.w3.org/2000/svg"
   xmlns:svg="http://www.w3.org/2000/svg">
  <sodipodi:namedview
     id="namedview20"
     pagecolor="#21ff00"
     bordercolor="#000000"
     borderopacity="0.25"
     inkscape:showpageshadow="2"
     inkscape:pageopacity="0"
     inkscape:pagecheckerboard="0"
     inkscape:deskcolor="#d1d1d1"
     inkscape:document-units="pt"
     showgrid="false"
     inkscape:zoom="5.9146151"
     inkscape:cx="94.84979"
     inkscape:cy="32.123815"
     inkscape:window-width="2070"
     inkscape:window-height="2104"
     inkscape:window-x="2164"
     inkscape:window-y="882"
     inkscape:window-maximized="1"
     inkscape:current-layer="svg34" />
  <defs
     id="defs8">
    <inkscape:path-effect
       effect="powerclip"
       id="path-effect403"
       is_visible="true"
       lpeversion="1"
       inverse="true"
       flatten="false"
       hide_clip="false"
       message="Use fill-rule evenodd on &lt;b&gt;fill and stroke&lt;/b&gt; dialog if no flatten result after convert clip to paths." />
    <inkscape:path-effect
       effect="powerclip"
       id="path-effect1968"
       is_visible="true"
       lpeversion="1"
       inverse="true"
       flatten="false"
       hide_clip="false"
       message="Use fill-rule evenodd on &lt;b&gt;fill and stroke&lt;/b&gt; dialog if no flatten result after convert clip to paths." />
    <inkscape:path-effect
       effect="powerclip"
       id="path-effect1950"
       is_visible="true"
       lpeversion="1"
       inverse="true"
       flatten="false"
       hide_clip="false"
       message="Use fill-rule evenodd on &lt;b&gt;fill and stroke&lt;/b&gt; dialog if no flatten result after convert clip to paths." />
    <inkscape:path-effect
       effect="powerclip"
       id="path-effect1946"
       is_visible="true"
       lpeversion="1"
       inverse="true"
       flatten="false"
       hide_clip="false"
       message="Use fill-rule evenodd on &lt;b&gt;fill and stroke&lt;/b&gt; dialog if no flatten result after convert clip to paths." />
    <inkscape:path-effect
       effect="powerclip"
       id="path-effect1942"
       is_visible="true"
       lpeversion="1"
       inverse="true"
       flatten="false"
       hide_clip="false"
       message="Use fill-rule evenodd on &lt;b&gt;fill and stroke&lt;/b&gt; dialog if no flatten result after convert clip to paths." />
    <inkscape:path-effect
       effect="powerclip"
       id="path-effect1879"
       is_visible="true"
       lpeversion="1"
       inverse="true"
       flatten="false"
       hide_clip="false"
       message="Use fill-rule evenodd on &lt;b&gt;fill and stroke&lt;/b&gt; dialog if no flatten result after convert clip to paths." />
    <inkscape:path-effect
       effect="powerclip"
       id="path-effect1875"
       is_visible="true"
       lpeversion="1"
       inverse="true"
       flatten="false"
       hide_clip="false"
       message="Use fill-rule evenodd on &lt;b&gt;fill and stroke&lt;/b&gt; dialog if no flatten result after convert clip to paths." />
    <inkscape:path-effect
       effect="powerclip"
       id="path-effect1871"
       is_visible="true"
       lpeversion="1"
       inverse="true"
       flatten="false"
       hide_clip="false"
       message="Use fill-rule evenodd on &lt;b&gt;fill and stroke&lt;/b&gt; dialog if no flatten result after convert clip to paths." />
    <inkscape:path-effect
       effect="powerclip"
       id="path-effect1823"
       is_visible="true"
       lpeversion="1"
       inverse="true"
       flatten="false"
       hide_clip="false"
       message="Use fill-rule evenodd on &lt;b&gt;fill and stroke&lt;/b&gt; dialog if no flatten result after convert clip to paths." />
    <inkscape:path-effect
       effect="powerclip"
       id="path-effect1819"
       is_visible="true"
       lpeversion="1"
       inverse="true"
       flatten="false"
       hide_clip="false"
       message="Use fill-rule evenodd on &lt;b&gt;fill and stroke&lt;/b&gt; dialog if no flatten result after convert clip to paths." />
    <inkscape:path-effect
       effect="powerclip"
       id="path-effect1815"
       is_visible="true"
       lpeversion="1"
       inverse="true"
       flatten="false"
       hide_clip="false"
       message="Use fill-rule evenodd on &lt;b&gt;fill and stroke&lt;/b&gt; dialog if no flatten result after convert clip to paths." />
    <inkscape:path-effect
       effect="powerclip"
       id="path-effect1799"
       is_visible="true"
       lpeversion="1"
       inverse="true"
       flatten="false"
       hide_clip="false"
       message="Use fill-rule evenodd on &lt;b&gt;fill and stroke&lt;/b&gt; dialog if no flatten result after convert clip to paths." />
    <inkscape:path-effect
       effect="powerclip"
       id="path-effect1795"
       is_visible="true"
       lpeversion="1"
       inverse="true"
       flatten="false"
       hide_clip="false"
       message="Use fill-rule evenodd on &lt;b&gt;fill and stroke&lt;/b&gt; dialog if no flatten result after convert clip to paths." />
    <inkscape:path-effect
       effect="powerclip"
       id="path-effect1791"
       is_visible="true"
       lpeversion="1"
       inverse="true"
       flatten="false"
       hide_clip="false"
       message="Use fill-rule evenodd on &lt;b&gt;fill and stroke&lt;/b&gt; dialog if no flatten result after convert clip to paths." />
    <clipPath
       id="clip-0">
      <path
         clip-rule="nonzero"
         d="M 0,0 H 144.96094 V 130.05078 H 0 Z m 0,0"
         id="path2" />
    </clipPath>
    <clipPath
       id="clip-1">
      <path
         clip-rule="nonzero"
         d="m 91,27 h 53.96094 V 97 H 91 Z m 0,0"
         id="path5" />
    </clipPath>
    <filter
       id="mask-powermask-path-effect1649_inverse"
       inkscape:label="filtermask-powermask-path-effect1649"
       style="color-interpolation-filters:sRGB"
       height="100"
       width="100"
       x="-50"
       y="-50">
      <feColorMatrix
         id="mask-powermask-path-effect1649_primitive1"
         values="1"
         type="saturate"
         result="fbSourceGraphic" />
      <feColorMatrix
         id="mask-powermask-path-effect1649_primitive2"
         values="-1 0 0 0 1 0 -1 0 0 1 0 0 -1 0 1 0 0 0 1 0 "
         in="fbSourceGraphic" />
    </filter>
    <filter
       id="mask-powermask-path-effect1654_inverse"
       inkscape:label="filtermask-powermask-path-effect1654"
       style="color-interpolation-filters:sRGB"
       height="100"
       width="100"
       x="-50"
       y="-50">
      <feColorMatrix
         id="mask-powermask-path-effect1654_primitive1"
         values="1"
         type="saturate"
         result="fbSourceGraphic" />
      <feColorMatrix
         id="mask-powermask-path-effect1654_primitive2"
         values="-1 0 0 0 1 0 -1 0 0 1 0 0 -1 0 1 0 0 0 1 0 "
         in="fbSourceGraphic" />
    </filter>
    <filter
       id="mask-powermask-path-effect1659_inverse"
       inkscape:label="filtermask-powermask-path-effect1659"
       style="color-interpolation-filters:sRGB"
       height="100"
       width="100"
       x="-50"
       y="-50">
      <feColorMatrix
         id="mask-powermask-path-effect1659_primitive1"
         values="1"
         type="saturate"
         result="fbSourceGraphic" />
      <feColorMatrix
         id="mask-powermask-path-effect1659_primitive2"
         values="-1 0 0 0 1 0 -1 0 0 1 0 0 -1 0 1 0 0 0 1 0 "
         in="fbSourceGraphic" />
    </filter>
    <filter
       id="mask-powermask-path-effect1664_inverse"
       inkscape:label="filtermask-powermask-path-effect1664"
       style="color-interpolation-filters:sRGB"
       height="100"
       width="100"
       x="-50"
       y="-50">
      <feColorMatrix
         id="mask-powermask-path-effect1664_primitive1"
         values="1"
         type="saturate"
         result="fbSourceGraphic" />
      <feColorMatrix
         id="mask-powermask-path-effect1664_primitive2"
         values="-1 0 0 0 1 0 -1 0 0 1 0 0 -1 0 1 0 0 0 1 0 "
         in="fbSourceGraphic" />
    </filter>
    <filter
       id="mask-powermask-path-effect1705_inverse"
       inkscape:label="filtermask-powermask-path-effect1705"
       style="color-interpolation-filters:sRGB"
       height="100"
       width="100"
       x="-50"
       y="-50">
      <feColorMatrix
         id="mask-powermask-path-effect1705_primitive1"
         values="1"
         type="saturate"
         result="fbSourceGraphic" />
      <feColorMatrix
         id="mask-powermask-path-effect1705_primitive2"
         values="-1 0 0 0 1 0 -1 0 0 1 0 0 -1 0 1 0 0 0 1 0 "
         in="fbSourceGraphic" />
    </filter>
    <filter
       id="mask-powermask-path-effect1710_inverse"
       inkscape:label="filtermask-powermask-path-effect1710"
       style="color-interpolation-filters:sRGB"
       height="100"
       width="100"
       x="-50"
       y="-50">
      <feColorMatrix
         id="mask-powermask-path-effect1710_primitive1"
         values="1"
         type="saturate"
         result="fbSourceGraphic" />
      <feColorMatrix
         id="mask-powermask-path-effect1710_primitive2"
         values="-1 0 0 0 1 0 -1 0 0 1 0 0 -1 0 1 0 0 0 1 0 "
         in="fbSourceGraphic" />
    </filter>
    <filter
       id="mask-powermask-path-effect1715_inverse"
       inkscape:label="filtermask-powermask-path-effect1715"
       style="color-interpolation-filters:sRGB"
       height="100"
       width="100"
       x="-50"
       y="-50">
      <feColorMatrix
         id="mask-powermask-path-effect1715_primitive1"
         values="1"
         type="saturate"
         result="fbSourceGraphic" />
      <feColorMatrix
         id="mask-powermask-path-effect1715_primitive2"
         values="-1 0 0 0 1 0 -1 0 0 1 0 0 -1 0 1 0 0 0 1 0 "
         in="fbSourceGraphic" />
    </filter>
    <filter
       id="mask-powermask-path-effect1720_inverse"
       inkscape:label="filtermask-powermask-path-effect1720"
       style="color-interpolation-filters:sRGB"
       height="100"
       width="100"
       x="-50"
       y="-50">
      <feColorMatrix
         id="mask-powermask-path-effect1720_primitive1"
         values="1"
         type="saturate"
         result="fbSourceGraphic" />
      <feColorMatrix
         id="mask-powermask-path-effect1720_primitive2"
         values="-1 0 0 0 1 0 -1 0 0 1 0 0 -1 0 1 0 0 0 1 0 "
         in="fbSourceGraphic" />
    </filter>
    <clipPath
       clipPathUnits="userSpaceOnUse"
       id="clipPath1779">
      <path
         fill-rule="nonzero"
         fill="#ffffff"
         fill-opacity="1"
         stroke-width="3.57224"
         stroke-linecap="butt"
         stroke-linejoin="miter"
         stroke="#000000"
         stroke-opacity="1"
         stroke-miterlimit="4"
         d="m 143.33759,82.565332 c 0,0.547628 -0.0538,1.091122 -0.16181,1.626321 -0.10784,0.539346 -0.26551,1.057955 -0.47296,1.564107 -0.21159,0.506154 -0.46883,0.987407 -0.77168,1.439627 -0.30286,0.456368 -0.64722,0.879556 -1.0372,1.265388 -0.38584,0.385846 -0.80902,0.730189 -1.26124,1.037204 -0.45637,0.302867 -0.93763,0.560098 -1.44379,0.767531 -0.50199,0.211593 -1.02477,0.369242 -1.55994,0.477119 -0.53936,0.103823 -1.07869,0.157648 -1.62633,0.157648 -0.54764,0 -1.09113,-0.05392 -1.62633,-0.157648 -0.53935,-0.107837 -1.05796,-0.265526 -1.5641,-0.477119 -0.50616,-0.207433 -0.98742,-0.464664 -1.44379,-0.767531 -0.45222,-0.307015 -0.8754,-0.651358 -1.26124,-1.037204 -0.38584,-0.385832 -0.73435,-0.80902 -1.0372,-1.265388 -0.30287,-0.45222 -0.5601,-0.933473 -0.77168,-1.439627 -0.20745,-0.506152 -0.3651,-1.024761 -0.47297,-1.564107 -0.10784,-0.535199 -0.15765,-1.078693 -0.15765,-1.626321 0,-0.547656 0.0498,-1.086989 0.15765,-1.626338 0.10783,-0.535199 0.26552,-1.057955 0.47297,-1.564107 0.21158,-0.502005 0.46881,-0.983259 0.77168,-1.43964 0.30285,-0.456368 0.65136,-0.875395 1.0372,-1.261227 0.38584,-0.389993 0.80902,-0.73435 1.26124,-1.037204 0.45637,-0.307015 0.93763,-0.560098 1.44379,-0.771692 0.50614,-0.207433 1.02475,-0.365094 1.5641,-0.472958 0.5352,-0.107837 1.07869,-0.161796 1.62633,-0.161796 0.54764,0 1.08697,0.05392 1.62633,0.161796 0.53517,0.107838 1.05795,0.265525 1.55994,0.472958 0.50616,0.211594 0.98742,0.464677 1.44379,0.771692 0.45222,0.302854 0.8754,0.647211 1.26124,1.037204 0.38998,0.385832 0.73434,0.804859 1.0372,1.261227 0.30285,0.456381 0.56009,0.937635 0.77168,1.43964 0.20745,0.506152 0.36509,1.028908 0.47296,1.564107 0.10783,0.539349 0.16181,1.078682 0.16181,1.626338 z m 0,0"
         id="path1781"
         inkscape:transform-center-x="4.6415641"
         inkscape:transform-center-y="-23.110579"
         style="display:none;fill:#1206fb;fill-opacity:1;stroke:none;stroke-opacity:1" />
      <path
         id="lpe_path-effect1791"
         style="display:inline;fill:#1206fb;fill-opacity:1;stroke:none;stroke-opacity:1"
         class="powerclip"
         d="m 117.25248,64.74914 h 35.49925 v 35.49925 h -35.49925 z m 26.08511,17.816192 c 0,-0.547656 -0.054,-1.086989 -0.16181,-1.626338 -0.10787,-0.535199 -0.26551,-1.057955 -0.47296,-1.564107 -0.21159,-0.502005 -0.46883,-0.983259 -0.77168,-1.43964 -0.30286,-0.456368 -0.64722,-0.875395 -1.0372,-1.261227 -0.38584,-0.389993 -0.80902,-0.73435 -1.26124,-1.037204 -0.45637,-0.307015 -0.93763,-0.560098 -1.44379,-0.771692 -0.50199,-0.207433 -1.02477,-0.36512 -1.55994,-0.472958 -0.53936,-0.107876 -1.07869,-0.161796 -1.62633,-0.161796 -0.54764,0 -1.09113,0.05396 -1.62633,0.161796 -0.53935,0.107864 -1.05796,0.265525 -1.5641,0.472958 -0.50616,0.211594 -0.98742,0.464677 -1.44379,0.771692 -0.45222,0.302854 -0.8754,0.647211 -1.26124,1.037204 -0.38584,0.385832 -0.73435,0.804859 -1.0372,1.261227 -0.30287,0.456381 -0.5601,0.937635 -0.77168,1.43964 -0.20745,0.506152 -0.36514,1.028908 -0.47297,1.564107 -0.10785,0.539349 -0.15765,1.078682 -0.15765,1.626338 0,0.547628 0.0498,1.091122 0.15765,1.626321 0.10787,0.539346 0.26552,1.057955 0.47297,1.564107 0.21158,0.506154 0.46881,0.987407 0.77168,1.439627 0.30285,0.456368 0.65136,0.879556 1.0372,1.265388 0.38584,0.385846 0.80902,0.730189 1.26124,1.037204 0.45637,0.302867 0.93763,0.560098 1.44379,0.767531 0.50614,0.211593 1.02475,0.369282 1.5641,0.477119 0.5352,0.103728 1.07869,0.157648 1.62633,0.157648 0.54764,0 1.08697,-0.05383 1.62633,-0.157648 0.53517,-0.107877 1.05795,-0.265526 1.55994,-0.477119 0.50616,-0.207433 0.98742,-0.464664 1.44379,-0.767531 0.45222,-0.307015 0.8754,-0.651358 1.26124,-1.037204 0.38998,-0.385832 0.73434,-0.80902 1.0372,-1.265388 0.30285,-0.45222 0.56009,-0.933473 0.77168,-1.439627 0.20745,-0.506152 0.36512,-1.024761 0.47296,-1.564107 0.10801,-0.535199 0.16181,-1.078693 0.16181,-1.626321 z" />
    </clipPath>
    <clipPath
       clipPathUnits="userSpaceOnUse"
       id="clipPath1783">
      <path
         id="lpe_path-effect1795"
         style="display:inline;fill:#1206fb;fill-opacity:1;stroke:none;stroke-opacity:1"
         class="powerclip"
         d="M 36.480408,26.390559 H 107.02356 V 96.933717 H 36.480408 Z m 71.027112,35.69438 c 0,-0.40933 -0.0403,-0.81244 -0.12094,-1.215562 -0.0806,-0.40002 -0.19845,-0.79074 -0.3535,-1.16905 -0.15815,-0.37521 -0.35041,-0.73491 -0.57677,-1.07602 -0.22636,-0.3411 -0.48375,-0.65429 -0.77523,-0.94267 -0.28838,-0.29149 -0.60468,-0.54887 -0.94268,-0.77523 -0.3411,-0.22947 -0.7008,-0.41863 -1.07912,-0.57678 -0.3752,-0.15504 -0.76593,-0.2729 -1.16594,-0.3535 -0.40312,-0.08063 -0.80623,-0.12093 -1.21555,-0.12093 -0.40932,0 -0.81554,0.04033 -1.21556,0.12093 -0.403122,0.08062 -0.790737,0.19846 -1.169045,0.3535 -0.378315,0.15815 -0.738015,0.34731 -1.079115,0.57678 -0.338002,0.22636 -0.6543,0.48374 -0.942682,0.77523 -0.28839,0.28838 -0.548873,0.60157 -0.77523,0.94267 -0.226373,0.34111 -0.418628,0.70081 -0.576773,1.07602 -0.155047,0.37831 -0.272905,0.76903 -0.353505,1.16905 -0.08063,0.403122 -0.117832,0.806232 -0.117832,1.215562 0,0.40931 0.03723,0.81553 0.117832,1.21555 0.08062,0.40312 0.198458,0.79074 0.353505,1.16905 0.158145,0.37831 0.3504,0.73801 0.576773,1.07601 0.226357,0.3411 0.48684,0.6574 0.77523,0.94578 0.288382,0.28839 0.60468,0.54576 0.942682,0.77523 0.3411,0.22637 0.7008,0.41863 1.079115,0.57367 0.378308,0.15815 0.765923,0.27601 1.169045,0.35661 0.40002,0.07753 0.80624,0.11783 1.21556,0.11783 0.40932,0 0.81243,-0.04023 1.21555,-0.11783 0.40001,-0.08063 0.79074,-0.19846 1.16594,-0.35661 0.37832,-0.15504 0.73802,-0.3473 1.07912,-0.57367 0.338,-0.22947 0.6543,-0.48684 0.94268,-0.77523 0.29148,-0.28838 0.54887,-0.60468 0.77523,-0.94578 0.22636,-0.338 0.41862,-0.6977 0.57677,-1.07601 0.15505,-0.37831 0.2729,-0.76593 0.3535,-1.16905 0.0807,-0.40002 0.12094,-0.80624 0.12094,-1.21555 z" />
    </clipPath>
    <clipPath
       clipPathUnits="userSpaceOnUse"
       id="clipPath1787">
      <path
         id="lpe_path-effect1799"
         style="display:inline;fill:#1206fb;fill-opacity:1;stroke:none;stroke-opacity:1"
         class="powerclip"
         d="M 38.722656,28.632813 H 104.78125 V 94.691406 H 38.722656 Z m 68.784864,33.452126 c 0,-0.40933 -0.0403,-0.81244 -0.12094,-1.215562 -0.0806,-0.40002 -0.19845,-0.79074 -0.3535,-1.16905 -0.15815,-0.37521 -0.35041,-0.73491 -0.57677,-1.07602 -0.22636,-0.3411 -0.48375,-0.65429 -0.77523,-0.94267 -0.28838,-0.29149 -0.60468,-0.54887 -0.94268,-0.77523 -0.3411,-0.22947 -0.7008,-0.41863 -1.07912,-0.57678 -0.3752,-0.15504 -0.76593,-0.2729 -1.16594,-0.3535 -0.40312,-0.08063 -0.80623,-0.12093 -1.21555,-0.12093 -0.40932,0 -0.81554,0.04033 -1.21556,0.12093 -0.403122,0.08062 -0.790737,0.19846 -1.169045,0.3535 -0.378315,0.15815 -0.738015,0.34731 -1.079115,0.57678 -0.338002,0.22636 -0.6543,0.48374 -0.942682,0.77523 -0.28839,0.28838 -0.548873,0.60157 -0.77523,0.94267 -0.226373,0.34111 -0.418628,0.70081 -0.576773,1.07602 -0.155047,0.37831 -0.272905,0.76903 -0.353505,1.16905 -0.08063,0.403122 -0.117832,0.806232 -0.117832,1.215562 0,0.40931 0.03723,0.81553 0.117832,1.21555 0.08062,0.40312 0.198458,0.79074 0.353505,1.16905 0.158145,0.37831 0.3504,0.73801 0.576773,1.07601 0.226357,0.3411 0.48684,0.6574 0.77523,0.94578 0.288382,0.28839 0.60468,0.54576 0.942682,0.77523 0.3411,0.22637 0.7008,0.41863 1.079115,0.57367 0.378308,0.15815 0.765923,0.27601 1.169045,0.35661 0.40002,0.07753 0.80624,0.11783 1.21556,0.11783 0.40932,0 0.81243,-0.04023 1.21555,-0.11783 0.40001,-0.08063 0.79074,-0.19846 1.16594,-0.35661 0.37832,-0.15504 0.73802,-0.3473 1.07912,-0.57367 0.338,-0.22947 0.6543,-0.48684 0.94268,-0.77523 0.29148,-0.28838 0.54887,-0.60468 0.77523,-0.94578 0.22636,-0.338 0.41862,-0.6977 0.57677,-1.07601 0.15505,-0.37831 0.2729,-0.76593 0.3535,-1.16905 0.0807,-0.40002 0.12094,-0.80624 0.12094,-1.21555 z" />
    </clipPath>
    <clipPath
       clipPathUnits="userSpaceOnUse"
       id="clipPath1803">
      <path
         fill-rule="nonzero"
         fill="#ffffff"
         fill-opacity="1"
         stroke-width="3.57224"
         stroke-linecap="butt"
         stroke-linejoin="miter"
         stroke="#000000"
         stroke-opacity="1"
         stroke-miterlimit="4"
         d="m 63.809801,82.563622 c 0,0.547638 -0.05383,1.091131 -0.161811,1.626332 -0.107863,0.539343 -0.265512,1.057941 -0.472949,1.564095 -0.211601,0.506161 -0.468831,0.987416 -0.771685,1.439635 -0.302857,0.456372 -0.64722,0.879553 -1.0372,1.265391 -0.385837,0.385838 -0.809018,0.73019 -1.261237,1.037198 -0.456372,0.302868 -0.937629,0.560095 -1.44379,0.767533 -0.501999,0.21159 -1.024761,0.369237 -1.559951,0.477114 -0.539342,0.10377 -1.078685,0.157647 -1.626323,0.157647 -0.547646,0 -1.091142,-0.05396 -1.626342,-0.157647 -0.539341,-0.107877 -1.057941,-0.265524 -1.564093,-0.477114 -0.506162,-0.207438 -0.987418,-0.464665 -1.44379,-0.767533 -0.452218,-0.307008 -0.8754,-0.65136 -1.261237,-1.037198 C 49.193556,88.073237 48.84505,87.650056 48.542194,87.193684 48.239328,86.741465 47.982098,86.26021 47.770518,85.754049 47.56307,85.247895 47.405425,84.729297 47.297546,84.189954 47.189682,83.654753 47.13989,83.11126 47.13989,82.563622 c 0,-0.547647 0.04981,-1.08699 0.157656,-1.626332 0.107878,-0.535201 0.265524,-1.057951 0.472972,-1.564104 0.21158,-0.502009 0.46881,-0.983267 0.771676,-1.439636 0.302856,-0.456372 0.651362,-0.8754 1.037199,-1.261238 0.385837,-0.38999 0.809019,-0.734342 1.261237,-1.037199 0.456372,-0.307019 0.937628,-0.560096 1.44379,-0.771687 0.506152,-0.207436 1.024752,-0.365094 1.564093,-0.472959 0.5352,-0.107864 1.078696,-0.1618 1.626342,-0.1618 0.547638,0 1.086981,0.05396 1.626323,0.1618 0.53519,0.107864 1.057952,0.265523 1.559951,0.472959 0.506161,0.211591 0.987418,0.464668 1.44379,0.771687 0.452219,0.302857 0.8754,0.647209 1.261237,1.037199 0.38998,0.385838 0.734343,0.804866 1.0372,1.261238 0.302854,0.456369 0.560084,0.937627 0.771685,1.439636 0.207437,0.506153 0.365085,1.028903 0.472949,1.564104 0.107878,0.539342 0.161811,1.078685 0.161811,1.626332 z m 0,0"
         id="path1805"
         inkscape:transform-center-x="4.6415641"
         inkscape:transform-center-y="-23.110579"
         style="display:none;fill:#1206fb;fill-opacity:1;stroke:none;stroke-opacity:1" />
      <path
         id="lpe_path-effect1815"
         style="display:inline;fill:#1206fb;fill-opacity:1;stroke:none;stroke-opacity:1"
         class="powerclip"
         d="m 37.750109,64.74914 h 35.499247 v 35.49925 H 37.750109 Z M 63.8294,82.54376 c 0,-0.547642 -0.05397,-1.086988 -0.161808,-1.626334 -0.107865,-0.535199 -0.265513,-1.057942 -0.47296,-1.564094 -0.211593,-0.502019 -0.468823,-0.983273 -0.771677,-1.439641 -0.302855,-0.456368 -0.647224,-0.875408 -1.037204,-1.26124 -0.385833,-0.389994 -0.80902,-0.73435 -1.261241,-1.037203 -0.456368,-0.307015 -0.937621,-0.560099 -1.443787,-0.771679 -0.501991,-0.207446 -1.024761,-0.365121 -1.559946,-0.472958 -0.539348,-0.10789 -1.078681,-0.16181 -1.626322,-0.16181 -0.547642,0 -1.091136,0.05397 -1.626334,0.16181 -0.539348,0.107864 -1.057943,0.265512 -1.564095,0.472958 -0.506166,0.211594 -0.987419,0.464664 -1.443788,0.771679 -0.45222,0.302853 -0.875407,0.647209 -1.26124,1.037203 -0.385832,0.385832 -0.734349,0.804872 -1.037204,1.26124 -0.302867,0.456368 -0.560098,0.937622 -0.771673,1.439627 -0.207447,0.506153 -0.365135,1.028909 -0.472973,1.564108 -0.107878,0.539346 -0.157648,1.078692 -0.157648,1.626334 0,0.547642 0.04981,1.091136 0.157648,1.626335 0.107891,0.539346 0.265526,1.057942 0.472973,1.564094 0.211575,0.506152 0.468806,0.98742 0.771673,1.439627 0.302855,0.456381 0.651372,0.879555 1.037204,1.265401 0.385833,0.385833 0.80902,0.730189 1.26124,1.037191 0.456369,0.302867 0.937622,0.560097 1.443788,0.76753 0.506152,0.211594 1.024747,0.369283 1.564095,0.477119 0.535198,0.103739 1.078692,0.157649 1.626334,0.157649 0.547641,0 1.086974,-0.05382 1.626322,-0.157649 0.535185,-0.107876 1.057955,-0.265525 1.559946,-0.477119 0.506166,-0.207433 0.987419,-0.464663 1.443787,-0.76753 0.452221,-0.307002 0.875408,-0.651358 1.261241,-1.037191 0.38998,-0.385846 0.734349,-0.80902 1.037204,-1.265401 0.302854,-0.452207 0.560084,-0.933475 0.771677,-1.439627 0.207447,-0.506152 0.365122,-1.024748 0.47296,-1.564094 C 63.77562,83.634896 63.8294,83.091402 63.8294,82.54376 Z" />
    </clipPath>
    <clipPath
       clipPathUnits="userSpaceOnUse"
       id="clipPath1807">
      <path
         fill-rule="nonzero"
         fill="#ffffff"
         fill-opacity="1"
         stroke-width="2.66998"
         stroke-linecap="butt"
         stroke-linejoin="miter"
         stroke="#000000"
         stroke-opacity="1"
         stroke-miterlimit="4"
         d="m 48.066624,62.083661 c 0,0.409317 -0.04024,0.815537 -0.120941,1.215558 -0.08062,0.403117 -0.19845,0.79073 -0.353493,1.16904 -0.158156,0.378317 -0.350415,0.738018 -0.576776,1.076017 -0.226362,0.341103 -0.483747,0.657398 -0.775227,0.945782 -0.288383,0.288384 -0.604678,0.545761 -0.942677,0.775226 -0.341103,0.22637 -0.700805,0.418628 -1.079122,0.573672 -0.375205,0.158147 -0.76593,0.275976 -1.165943,0.356606 -0.403117,0.07756 -0.806234,0.117829 -1.215551,0.117829 -0.409324,0 -0.815545,-0.04033 -1.215566,-0.117829 -0.403116,-0.08063 -0.790729,-0.198459 -1.169039,-0.356606 -0.378317,-0.155044 -0.738019,-0.347302 -1.079122,-0.573672 -0.337998,-0.229465 -0.654294,-0.486842 -0.942677,-0.775226 -0.288384,-0.288384 -0.548865,-0.604679 -0.775227,-0.945782 -0.226369,-0.337999 -0.418628,-0.6977 -0.576768,-1.076017 -0.155051,-0.37831 -0.272879,-0.765923 -0.35351,-1.16904 -0.08062,-0.400021 -0.117836,-0.806241 -0.117836,-1.215558 0,-0.409324 0.03723,-0.812441 0.117836,-1.215558 0.08063,-0.400021 0.198459,-0.790737 0.35351,-1.169047 0.15814,-0.375213 0.350399,-0.734916 0.576768,-1.076017 0.226362,-0.341103 0.486843,-0.654294 0.775227,-0.942679 0.288383,-0.291487 0.604679,-0.548864 0.942677,-0.775226 0.341103,-0.229473 0.700805,-0.418628 1.079122,-0.576776 0.37831,-0.155043 0.765923,-0.27288 1.169039,-0.353501 0.400021,-0.08062 0.806242,-0.120933 1.215566,-0.120933 0.409317,0 0.812434,0.04033 1.215551,0.120933 0.400013,0.08062 0.790738,0.198458 1.165943,0.353501 0.378317,0.158148 0.738019,0.347303 1.079122,0.576776 0.337999,0.226362 0.654294,0.483739 0.942677,0.775226 0.29148,0.288385 0.548865,0.601576 0.775227,0.942679 0.226361,0.341101 0.41862,0.700804 0.576776,1.076017 0.155043,0.37831 0.272872,0.769026 0.353493,1.169047 0.08063,0.403117 0.120941,0.806234 0.120941,1.215558 z m 0,0"
         id="path1809"
         inkscape:transform-center-x="4.6415641"
         inkscape:transform-center-y="-23.110579"
         style="display:none;fill:#1206fb;fill-opacity:1;stroke:none;stroke-opacity:1" />
      <path
         id="lpe_path-effect1819"
         style="display:inline;fill:#1206fb;fill-opacity:1;stroke:none;stroke-opacity:1"
         class="powerclip"
         d="M 36.480408,26.390559 H 107.02356 V 96.933717 H 36.480408 Z m 11.600865,35.678257 c 0,-0.40932 -0.04034,-0.81244 -0.12094,-1.21556 -0.08062,-0.40002 -0.19845,-0.79073 -0.3535,-1.16904 -0.15815,-0.37522 -0.35041,-0.73492 -0.57677,-1.07602 -0.22636,-0.3411 -0.48375,-0.6543 -0.77523,-0.94268 -0.28838,-0.29149 -0.60468,-0.54887 -0.94268,-0.77523 -0.3411,-0.22947 -0.7008,-0.41863 -1.07912,-0.57677 -0.3752,-0.15505 -0.76593,-0.2729 -1.16594,-0.3535 -0.40312,-0.08064 -0.80623,-0.12094 -1.21555,-0.12094 -0.40932,0 -0.81554,0.04034 -1.21556,0.12094 -0.40312,0.08062 -0.79073,0.19845 -1.16904,0.3535 -0.37832,0.15815 -0.73802,0.3473 -1.07912,0.57677 -0.338,0.22636 -0.6543,0.48374 -0.94268,0.77523 -0.28838,0.28838 -0.54887,0.60158 -0.77523,0.94268 -0.22637,0.3411 -0.41863,0.7008 -0.576767,1.07601 -0.15505,0.37831 -0.27291,0.76903 -0.35351,1.16905 -0.08063,0.40312 -0.11783,0.80624 -0.11783,1.21556 0,0.40932 0.03723,0.81554 0.11783,1.21556 0.08064,0.40312 0.19846,0.79073 0.35351,1.16904 0.158137,0.37831 0.350397,0.73802 0.576767,1.07601 0.22636,0.34111 0.48685,0.6574 0.77523,0.94579 0.28838,0.28838 0.60468,0.54576 0.94268,0.77522 0.3411,0.22637 0.7008,0.41863 1.07912,0.57367 0.37831,0.15815 0.76592,0.27601 1.16904,0.35661 0.40002,0.07753 0.80624,0.11783 1.21556,0.11783 0.40932,0 0.81243,-0.04023 1.21555,-0.11783 0.40001,-0.08063 0.79074,-0.19846 1.16594,-0.35661 0.37832,-0.15504 0.73802,-0.3473 1.07912,-0.57367 0.338,-0.22946 0.6543,-0.48684 0.94268,-0.77522 0.29148,-0.28839 0.54887,-0.60468 0.77523,-0.94579 0.22636,-0.33799 0.41862,-0.6977 0.57677,-1.07601 0.15505,-0.37831 0.2729,-0.76592 0.3535,-1.16904 0.08074,-0.40002 0.12094,-0.80624 0.12094,-1.21556 z" />
    </clipPath>
    <clipPath
       clipPathUnits="userSpaceOnUse"
       id="clipPath1811">
      <path
         fill-rule="nonzero"
         fill="#ffffff"
         fill-opacity="1"
         stroke-width="2.66998"
         stroke-linecap="butt"
         stroke-linejoin="miter"
         stroke="#000000"
         stroke-opacity="1"
         stroke-miterlimit="4"
         d="m 48.066624,62.083661 c 0,0.409317 -0.04024,0.815537 -0.120941,1.215558 -0.08062,0.403117 -0.19845,0.79073 -0.353493,1.16904 -0.158156,0.378317 -0.350415,0.738018 -0.576776,1.076017 -0.226362,0.341103 -0.483747,0.657398 -0.775227,0.945782 -0.288383,0.288384 -0.604678,0.545761 -0.942677,0.775226 -0.341103,0.22637 -0.700805,0.418628 -1.079122,0.573672 -0.375205,0.158147 -0.76593,0.275976 -1.165943,0.356606 -0.403117,0.07756 -0.806234,0.117829 -1.215551,0.117829 -0.409324,0 -0.815545,-0.04033 -1.215566,-0.117829 -0.403116,-0.08063 -0.790729,-0.198459 -1.169039,-0.356606 -0.378317,-0.155044 -0.738019,-0.347302 -1.079122,-0.573672 -0.337998,-0.229465 -0.654294,-0.486842 -0.942677,-0.775226 -0.288384,-0.288384 -0.548865,-0.604679 -0.775227,-0.945782 -0.226369,-0.337999 -0.418628,-0.6977 -0.576768,-1.076017 -0.155051,-0.37831 -0.272879,-0.765923 -0.35351,-1.16904 -0.08062,-0.400021 -0.117836,-0.806241 -0.117836,-1.215558 0,-0.409324 0.03723,-0.812441 0.117836,-1.215558 0.08063,-0.400021 0.198459,-0.790737 0.35351,-1.169047 0.15814,-0.375213 0.350399,-0.734916 0.576768,-1.076017 0.226362,-0.341103 0.486843,-0.654294 0.775227,-0.942679 0.288383,-0.291487 0.604679,-0.548864 0.942677,-0.775226 0.341103,-0.229473 0.700805,-0.418628 1.079122,-0.576776 0.37831,-0.155043 0.765923,-0.27288 1.169039,-0.353501 0.400021,-0.08062 0.806242,-0.120933 1.215566,-0.120933 0.409317,0 0.812434,0.04033 1.215551,0.120933 0.400013,0.08062 0.790738,0.198458 1.165943,0.353501 0.378317,0.158148 0.738019,0.347303 1.079122,0.576776 0.337999,0.226362 0.654294,0.483739 0.942677,0.775226 0.29148,0.288385 0.548865,0.601576 0.775227,0.942679 0.226361,0.341101 0.41862,0.700804 0.576776,1.076017 0.155043,0.37831 0.272872,0.769026 0.353493,1.169047 0.08063,0.403117 0.120941,0.806234 0.120941,1.215558 z m 0,0"
         id="path1813"
         inkscape:transform-center-x="4.6415641"
         inkscape:transform-center-y="-23.110579"
         style="display:none;fill:#1206fb;fill-opacity:1;stroke:none;stroke-opacity:1" />
      <path
         id="lpe_path-effect1823"
         style="display:inline;fill:#1206fb;fill-opacity:1;stroke:none;stroke-opacity:1"
         class="powerclip"
         d="M 38.722656,28.632813 H 104.78125 V 94.691406 H 38.722656 Z m 9.358617,33.436003 c 0,-0.40932 -0.04034,-0.81244 -0.12094,-1.21556 -0.08062,-0.40002 -0.19845,-0.79073 -0.3535,-1.16904 -0.15815,-0.37522 -0.35041,-0.73492 -0.57677,-1.07602 -0.22636,-0.3411 -0.48375,-0.6543 -0.77523,-0.94268 -0.28838,-0.29149 -0.60468,-0.54887 -0.94268,-0.77523 -0.3411,-0.22947 -0.7008,-0.41863 -1.07912,-0.57677 -0.3752,-0.15505 -0.76593,-0.2729 -1.16594,-0.3535 -0.40312,-0.08064 -0.80623,-0.12094 -1.21555,-0.12094 -0.40932,0 -0.81554,0.04034 -1.21556,0.12094 -0.40312,0.08062 -0.79073,0.19845 -1.16904,0.3535 -0.37832,0.15815 -0.73802,0.3473 -1.07912,0.57677 -0.338,0.22636 -0.6543,0.48374 -0.94268,0.77523 -0.28838,0.28838 -0.54887,0.60158 -0.77523,0.94268 -0.22637,0.3411 -0.41863,0.7008 -0.576767,1.07601 -0.15505,0.37831 -0.27291,0.76903 -0.35351,1.16905 -0.08063,0.40312 -0.11783,0.80624 -0.11783,1.21556 0,0.40932 0.03723,0.81554 0.11783,1.21556 0.08064,0.40312 0.19846,0.79073 0.35351,1.16904 0.158137,0.37831 0.350397,0.73802 0.576767,1.07601 0.22636,0.34111 0.48685,0.6574 0.77523,0.94579 0.28838,0.28838 0.60468,0.54576 0.94268,0.77522 0.3411,0.22637 0.7008,0.41863 1.07912,0.57367 0.37831,0.15815 0.76592,0.27601 1.16904,0.35661 0.40002,0.07753 0.80624,0.11783 1.21556,0.11783 0.40932,0 0.81243,-0.04023 1.21555,-0.11783 0.40001,-0.08063 0.79074,-0.19846 1.16594,-0.35661 0.37832,-0.15504 0.73802,-0.3473 1.07912,-0.57367 0.338,-0.22946 0.6543,-0.48684 0.94268,-0.77522 0.29148,-0.28839 0.54887,-0.60468 0.77523,-0.94579 0.22636,-0.33799 0.41862,-0.6977 0.57677,-1.07601 0.15505,-0.37831 0.2729,-0.76592 0.3535,-1.16904 0.08074,-0.40002 0.12094,-0.80624 0.12094,-1.21556 z" />
    </clipPath>
    <clipPath
       clipPathUnits="userSpaceOnUse"
       id="clipPath1847">
      <g
         id="g1853"
         transform="matrix(1.3379304,0,0,1.3379304,-0.49999933,-0.49999933)"
         style="display:none">
        <path
           fill-rule="nonzero"
           fill="#ffffff"
           fill-opacity="1"
           stroke-width="2.66998"
           stroke-linecap="butt"
           stroke-linejoin="miter"
           stroke="#000000"
           stroke-opacity="1"
           stroke-miterlimit="4"
           d="m 48.069985,62.064271 c 0,0.40932 -0.0402,0.81554 -0.12094,1.21556 -0.0806,0.40312 -0.19845,0.79073 -0.3535,1.16904 -0.15815,0.37832 -0.35041,0.73802 -0.57677,1.07602 -0.22637,0.3411 -0.48375,0.65739 -0.77523,0.94578 -0.28838,0.28838 -0.60468,0.54576 -0.94268,0.77522 -0.3411,0.22637 -0.7008,0.41863 -1.07912,0.57368 -0.3752,0.15814 -0.76593,0.27597 -1.165943,0.3566 -0.403117,0.0776 -0.806234,0.11783 -1.215551,0.11783 -0.409324,0 -0.815545,-0.0403 -1.215566,-0.11783 -0.403116,-0.0806 -0.790729,-0.19846 -1.169039,-0.3566 -0.378317,-0.15505 -0.738019,-0.34731 -1.079122,-0.57368 -0.337998,-0.22946 -0.654294,-0.48684 -0.942677,-0.77522 -0.288384,-0.28839 -0.548865,-0.60468 -0.775227,-0.94578 -0.226369,-0.338 -0.418628,-0.6977 -0.576768,-1.07602 -0.155051,-0.37831 -0.272879,-0.76592 -0.35351,-1.16904 -0.08062,-0.40002 -0.117836,-0.80624 -0.117836,-1.21556 0,-0.40932 0.03723,-0.81244 0.117836,-1.21556 0.08063,-0.40002 0.198459,-0.79073 0.35351,-1.16904 0.15814,-0.37522 0.350399,-0.73492 0.576768,-1.07602 0.226362,-0.3411 0.486843,-0.65429 0.775227,-0.94268 0.288383,-0.29149 0.604679,-0.54886 0.942677,-0.77523 0.341103,-0.22947 0.700805,-0.41862 1.079122,-0.57677 0.37831,-0.15504 0.765923,-0.27288 1.169039,-0.3535 0.400021,-0.0806 0.806242,-0.12094 1.215566,-0.12094 0.409317,0 0.812434,0.0403 1.215551,0.12094 0.400013,0.0806 0.790743,0.19846 1.165943,0.3535 0.37832,0.15815 0.73802,0.3473 1.07912,0.57677 0.338,0.22637 0.6543,0.48374 0.94268,0.77523 0.29148,0.28839 0.54886,0.60158 0.77523,0.94268 0.22636,0.3411 0.41862,0.7008 0.57677,1.07602 0.15505,0.37831 0.27287,0.76902 0.3535,1.16904 0.0806,0.40312 0.12094,0.80624 0.12094,1.21556 z m 0,0"
           id="path1849"
           inkscape:transform-center-x="4.6415641"
           inkscape:transform-center-y="-23.110579"
           style="fill:#1206fb;fill-opacity:1;stroke:none;stroke-opacity:1" />
        <path
           fill-rule="nonzero"
           fill="#ffffff"
           fill-opacity="1"
           stroke-width="2.66998"
           stroke-linecap="butt"
           stroke-linejoin="miter"
           stroke="#000000"
           stroke-opacity="1"
           stroke-miterlimit="4"
           d="m 107.52046,62.053408 c 0,0.40932 -0.0402,0.81554 -0.12094,1.21556 -0.0806,0.40312 -0.19845,0.79073 -0.3535,1.16904 -0.15815,0.37831 -0.35041,0.73802 -0.57677,1.07601 -0.22636,0.34111 -0.48375,0.6574 -0.77523,0.94579 -0.28838,0.28838 -0.60468,0.54576 -0.94268,0.77522 -0.3411,0.22637 -0.7008,0.41863 -1.07912,0.57367 -0.3752,0.15815 -0.76593,0.27598 -1.16594,0.35661 -0.40312,0.0776 -0.80623,0.11783 -1.21555,0.11783 -0.40932,0 -0.81554,-0.0403 -1.21557,-0.11783 -0.403107,-0.0806 -0.790717,-0.19846 -1.169027,-0.35661 -0.37832,-0.15504 -0.73802,-0.3473 -1.07913,-0.57367 -0.33799,-0.22946 -0.65429,-0.48684 -0.94267,-0.77522 -0.28839,-0.28839 -0.54887,-0.60468 -0.77523,-0.94579 -0.22637,-0.33799 -0.41863,-0.6977 -0.57677,-1.07601 -0.15505,-0.37831 -0.27288,-0.76592 -0.35351,-1.16904 -0.0806,-0.40002 -0.11783,-0.80624 -0.11783,-1.21556 0,-0.40932 0.0372,-0.81244 0.11783,-1.21556 0.0806,-0.40002 0.19846,-0.79074 0.35351,-1.16905 0.15814,-0.37521 0.3504,-0.73491 0.57677,-1.07601 0.22636,-0.3411 0.48684,-0.6543 0.77523,-0.94268 0.28838,-0.29149 0.60468,-0.54887 0.94267,-0.77523 0.34111,-0.22947 0.70081,-0.41862 1.07913,-0.57677 0.37831,-0.15505 0.76592,-0.27288 1.169027,-0.3535 0.40003,-0.0806 0.80625,-0.12094 1.21557,-0.12094 0.40932,0 0.81243,0.0403 1.21555,0.12094 0.40001,0.0806 0.79074,0.19845 1.16594,0.3535 0.37832,0.15814 0.73802,0.3473 1.07912,0.57677 0.338,0.22636 0.6543,0.48374 0.94268,0.77523 0.29148,0.28838 0.54887,0.60158 0.77523,0.94268 0.22636,0.3411 0.41862,0.7008 0.57677,1.07602 0.15505,0.37831 0.27288,0.76902 0.3535,1.16904 0.0806,0.40312 0.12094,0.80624 0.12094,1.21556 z m 0,0"
           id="path1851"
           inkscape:transform-center-x="4.6415641"
           inkscape:transform-center-y="-23.110579"
           style="fill:#1206fb;fill-opacity:1;stroke:none;stroke-opacity:1" />
      </g>
      <path
         id="lpe_path-effect1871"
         class="powerclip"
         d="m 37.750109,64.74914 h 35.499247 v 35.49925 H 37.750109 Z M 63.8294,82.54376 c 0,-0.547642 -0.05397,-1.086988 -0.161808,-1.626334 -0.107865,-0.535199 -0.265513,-1.057942 -0.47296,-1.564094 -0.211593,-0.502019 -0.468823,-0.983273 -0.771677,-1.439641 -0.302855,-0.456368 -0.647224,-0.875408 -1.037204,-1.26124 -0.385833,-0.389994 -0.80902,-0.73435 -1.261241,-1.037203 -0.456368,-0.307015 -0.937621,-0.560099 -1.443787,-0.771679 -0.501991,-0.207446 -1.024761,-0.365121 -1.559946,-0.472958 -0.539348,-0.10789 -1.078681,-0.16181 -1.626322,-0.16181 -0.547642,0 -1.091136,0.05397 -1.626334,0.16181 -0.539348,0.107864 -1.057943,0.265512 -1.564095,0.472958 -0.506166,0.211594 -0.987419,0.464664 -1.443788,0.771679 -0.45222,0.302853 -0.875407,0.647209 -1.26124,1.037203 -0.385832,0.385832 -0.734349,0.804872 -1.037204,1.26124 -0.302867,0.456368 -0.560098,0.937622 -0.771673,1.439627 -0.207447,0.506153 -0.365135,1.028909 -0.472973,1.564108 -0.107878,0.539346 -0.157648,1.078692 -0.157648,1.626334 0,0.547642 0.04981,1.091136 0.157648,1.626335 0.107891,0.539346 0.265526,1.057942 0.472973,1.564094 0.211575,0.506152 0.468806,0.98742 0.771673,1.439627 0.302855,0.456381 0.651372,0.879555 1.037204,1.265401 0.385833,0.385833 0.80902,0.730189 1.26124,1.037191 0.456369,0.302867 0.937622,0.560097 1.443788,0.76753 0.506152,0.211594 1.024747,0.369283 1.564095,0.477119 0.535198,0.103739 1.078692,0.157649 1.626334,0.157649 0.547641,0 1.086974,-0.05382 1.626322,-0.157649 0.535185,-0.107876 1.057955,-0.265525 1.559946,-0.477119 0.506166,-0.207433 0.987419,-0.464663 1.443787,-0.76753 0.452221,-0.307002 0.875408,-0.651358 1.261241,-1.037191 0.38998,-0.385846 0.734349,-0.80902 1.037204,-1.265401 0.302854,-0.452207 0.560084,-0.933475 0.771677,-1.439627 0.207447,-0.506152 0.365122,-1.024748 0.47296,-1.564094 C 63.77562,83.634896 63.8294,83.091402 63.8294,82.54376 Z" />
    </clipPath>
    <clipPath
       clipPathUnits="userSpaceOnUse"
       id="clipPath1855">
      <g
         id="g1861"
         style="display:none">
        <path
           fill-rule="nonzero"
           fill="#ffffff"
           fill-opacity="1"
           stroke-width="2.66998"
           stroke-linecap="butt"
           stroke-linejoin="miter"
           stroke="#000000"
           stroke-opacity="1"
           stroke-miterlimit="4"
           d="m 48.069985,62.064271 c 0,0.40932 -0.0402,0.81554 -0.12094,1.21556 -0.0806,0.40312 -0.19845,0.79073 -0.3535,1.16904 -0.15815,0.37832 -0.35041,0.73802 -0.57677,1.07602 -0.22637,0.3411 -0.48375,0.65739 -0.77523,0.94578 -0.28838,0.28838 -0.60468,0.54576 -0.94268,0.77522 -0.3411,0.22637 -0.7008,0.41863 -1.07912,0.57368 -0.3752,0.15814 -0.76593,0.27597 -1.165943,0.3566 -0.403117,0.0776 -0.806234,0.11783 -1.215551,0.11783 -0.409324,0 -0.815545,-0.0403 -1.215566,-0.11783 -0.403116,-0.0806 -0.790729,-0.19846 -1.169039,-0.3566 -0.378317,-0.15505 -0.738019,-0.34731 -1.079122,-0.57368 -0.337998,-0.22946 -0.654294,-0.48684 -0.942677,-0.77522 -0.288384,-0.28839 -0.548865,-0.60468 -0.775227,-0.94578 -0.226369,-0.338 -0.418628,-0.6977 -0.576768,-1.07602 -0.155051,-0.37831 -0.272879,-0.76592 -0.35351,-1.16904 -0.08062,-0.40002 -0.117836,-0.80624 -0.117836,-1.21556 0,-0.40932 0.03723,-0.81244 0.117836,-1.21556 0.08063,-0.40002 0.198459,-0.79073 0.35351,-1.16904 0.15814,-0.37522 0.350399,-0.73492 0.576768,-1.07602 0.226362,-0.3411 0.486843,-0.65429 0.775227,-0.94268 0.288383,-0.29149 0.604679,-0.54886 0.942677,-0.77523 0.341103,-0.22947 0.700805,-0.41862 1.079122,-0.57677 0.37831,-0.15504 0.765923,-0.27288 1.169039,-0.3535 0.400021,-0.0806 0.806242,-0.12094 1.215566,-0.12094 0.409317,0 0.812434,0.0403 1.215551,0.12094 0.400013,0.0806 0.790743,0.19846 1.165943,0.3535 0.37832,0.15815 0.73802,0.3473 1.07912,0.57677 0.338,0.22637 0.6543,0.48374 0.94268,0.77523 0.29148,0.28839 0.54886,0.60158 0.77523,0.94268 0.22636,0.3411 0.41862,0.7008 0.57677,1.07602 0.15505,0.37831 0.27287,0.76902 0.3535,1.16904 0.0806,0.40312 0.12094,0.80624 0.12094,1.21556 z m 0,0"
           id="path1857"
           inkscape:transform-center-x="4.6415641"
           inkscape:transform-center-y="-23.110579"
           style="fill:#1206fb;fill-opacity:1;stroke:none;stroke-opacity:1" />
        <path
           fill-rule="nonzero"
           fill="#ffffff"
           fill-opacity="1"
           stroke-width="2.66998"
           stroke-linecap="butt"
           stroke-linejoin="miter"
           stroke="#000000"
           stroke-opacity="1"
           stroke-miterlimit="4"
           d="m 107.52046,62.053408 c 0,0.40932 -0.0402,0.81554 -0.12094,1.21556 -0.0806,0.40312 -0.19845,0.79073 -0.3535,1.16904 -0.15815,0.37831 -0.35041,0.73802 -0.57677,1.07601 -0.22636,0.34111 -0.48375,0.6574 -0.77523,0.94579 -0.28838,0.28838 -0.60468,0.54576 -0.94268,0.77522 -0.3411,0.22637 -0.7008,0.41863 -1.07912,0.57367 -0.3752,0.15815 -0.76593,0.27598 -1.16594,0.35661 -0.40312,0.0776 -0.80623,0.11783 -1.21555,0.11783 -0.40932,0 -0.81554,-0.0403 -1.21557,-0.11783 -0.403107,-0.0806 -0.790717,-0.19846 -1.169027,-0.35661 -0.37832,-0.15504 -0.73802,-0.3473 -1.07913,-0.57367 -0.33799,-0.22946 -0.65429,-0.48684 -0.94267,-0.77522 -0.28839,-0.28839 -0.54887,-0.60468 -0.77523,-0.94579 -0.22637,-0.33799 -0.41863,-0.6977 -0.57677,-1.07601 -0.15505,-0.37831 -0.27288,-0.76592 -0.35351,-1.16904 -0.0806,-0.40002 -0.11783,-0.80624 -0.11783,-1.21556 0,-0.40932 0.0372,-0.81244 0.11783,-1.21556 0.0806,-0.40002 0.19846,-0.79074 0.35351,-1.16905 0.15814,-0.37521 0.3504,-0.73491 0.57677,-1.07601 0.22636,-0.3411 0.48684,-0.6543 0.77523,-0.94268 0.28838,-0.29149 0.60468,-0.54887 0.94267,-0.77523 0.34111,-0.22947 0.70081,-0.41862 1.07913,-0.57677 0.37831,-0.15505 0.76592,-0.27288 1.169027,-0.3535 0.40003,-0.0806 0.80625,-0.12094 1.21557,-0.12094 0.40932,0 0.81243,0.0403 1.21555,0.12094 0.40001,0.0806 0.79074,0.19845 1.16594,0.3535 0.37832,0.15814 0.73802,0.3473 1.07912,0.57677 0.338,0.22636 0.6543,0.48374 0.94268,0.77523 0.29148,0.28838 0.54887,0.60158 0.77523,0.94268 0.22636,0.3411 0.41862,0.7008 0.57677,1.07602 0.15505,0.37831 0.27288,0.76902 0.3535,1.16904 0.0806,0.40312 0.12094,0.80624 0.12094,1.21556 z m 0,0"
           id="path1859"
           inkscape:transform-center-x="4.6415641"
           inkscape:transform-center-y="-23.110579"
           style="fill:#1206fb;fill-opacity:1;stroke:none;stroke-opacity:1" />
      </g>
      <path
         id="lpe_path-effect1875"
         class="powerclip"
         d="M 36.480408,26.390559 H 107.02356 V 96.933717 H 36.480408 Z m 11.600865,35.678257 c 0,-0.40932 -0.04034,-0.81244 -0.12094,-1.21556 -0.08062,-0.40002 -0.19845,-0.79073 -0.3535,-1.16904 -0.15815,-0.37522 -0.35041,-0.73492 -0.57677,-1.07602 -0.22636,-0.3411 -0.48375,-0.6543 -0.77523,-0.94268 -0.28838,-0.29149 -0.60468,-0.54887 -0.94268,-0.77523 -0.3411,-0.22947 -0.7008,-0.41863 -1.07912,-0.57677 -0.3752,-0.15505 -0.76593,-0.2729 -1.16594,-0.3535 -0.40312,-0.08064 -0.80623,-0.12094 -1.21555,-0.12094 -0.40932,0 -0.81554,0.04034 -1.21556,0.12094 -0.40312,0.08062 -0.79073,0.19845 -1.16904,0.3535 -0.37832,0.15815 -0.73802,0.3473 -1.07912,0.57677 -0.338,0.22636 -0.6543,0.48374 -0.94268,0.77523 -0.28838,0.28838 -0.54887,0.60158 -0.77523,0.94268 -0.22637,0.3411 -0.41863,0.7008 -0.576767,1.07601 -0.15505,0.37831 -0.27291,0.76903 -0.35351,1.16905 -0.08063,0.40312 -0.11783,0.80624 -0.11783,1.21556 0,0.40932 0.03723,0.81554 0.11783,1.21556 0.08064,0.40312 0.19846,0.79073 0.35351,1.16904 0.158137,0.37831 0.350397,0.73802 0.576767,1.07601 0.22636,0.34111 0.48685,0.6574 0.77523,0.94579 0.28838,0.28838 0.60468,0.54576 0.94268,0.77522 0.3411,0.22637 0.7008,0.41863 1.07912,0.57367 0.37831,0.15815 0.76592,0.27601 1.16904,0.35661 0.40002,0.07753 0.80624,0.11783 1.21556,0.11783 0.40932,0 0.81243,-0.04023 1.21555,-0.11783 0.40001,-0.08063 0.79074,-0.19846 1.16594,-0.35661 0.37832,-0.15504 0.73802,-0.3473 1.07912,-0.57367 0.338,-0.22946 0.6543,-0.48684 0.94268,-0.77522 0.29148,-0.28839 0.54887,-0.60468 0.77523,-0.94579 0.22636,-0.33799 0.41862,-0.6977 0.57677,-1.07601 0.15505,-0.37831 0.2729,-0.76592 0.3535,-1.16904 0.08074,-0.40002 0.12094,-0.80624 0.12094,-1.21556 z" />
    </clipPath>
    <clipPath
       clipPathUnits="userSpaceOnUse"
       id="clipPath1863">
      <g
         id="g1869"
         style="display:none">
        <path
           fill-rule="nonzero"
           fill="#ffffff"
           fill-opacity="1"
           stroke-width="2.66998"
           stroke-linecap="butt"
           stroke-linejoin="miter"
           stroke="#000000"
           stroke-opacity="1"
           stroke-miterlimit="4"
           d="m 48.069985,62.064271 c 0,0.40932 -0.0402,0.81554 -0.12094,1.21556 -0.0806,0.40312 -0.19845,0.79073 -0.3535,1.16904 -0.15815,0.37832 -0.35041,0.73802 -0.57677,1.07602 -0.22637,0.3411 -0.48375,0.65739 -0.77523,0.94578 -0.28838,0.28838 -0.60468,0.54576 -0.94268,0.77522 -0.3411,0.22637 -0.7008,0.41863 -1.07912,0.57368 -0.3752,0.15814 -0.76593,0.27597 -1.165943,0.3566 -0.403117,0.0776 -0.806234,0.11783 -1.215551,0.11783 -0.409324,0 -0.815545,-0.0403 -1.215566,-0.11783 -0.403116,-0.0806 -0.790729,-0.19846 -1.169039,-0.3566 -0.378317,-0.15505 -0.738019,-0.34731 -1.079122,-0.57368 -0.337998,-0.22946 -0.654294,-0.48684 -0.942677,-0.77522 -0.288384,-0.28839 -0.548865,-0.60468 -0.775227,-0.94578 -0.226369,-0.338 -0.418628,-0.6977 -0.576768,-1.07602 -0.155051,-0.37831 -0.272879,-0.76592 -0.35351,-1.16904 -0.08062,-0.40002 -0.117836,-0.80624 -0.117836,-1.21556 0,-0.40932 0.03723,-0.81244 0.117836,-1.21556 0.08063,-0.40002 0.198459,-0.79073 0.35351,-1.16904 0.15814,-0.37522 0.350399,-0.73492 0.576768,-1.07602 0.226362,-0.3411 0.486843,-0.65429 0.775227,-0.94268 0.288383,-0.29149 0.604679,-0.54886 0.942677,-0.77523 0.341103,-0.22947 0.700805,-0.41862 1.079122,-0.57677 0.37831,-0.15504 0.765923,-0.27288 1.169039,-0.3535 0.400021,-0.0806 0.806242,-0.12094 1.215566,-0.12094 0.409317,0 0.812434,0.0403 1.215551,0.12094 0.400013,0.0806 0.790743,0.19846 1.165943,0.3535 0.37832,0.15815 0.73802,0.3473 1.07912,0.57677 0.338,0.22637 0.6543,0.48374 0.94268,0.77523 0.29148,0.28839 0.54886,0.60158 0.77523,0.94268 0.22636,0.3411 0.41862,0.7008 0.57677,1.07602 0.15505,0.37831 0.27287,0.76902 0.3535,1.16904 0.0806,0.40312 0.12094,0.80624 0.12094,1.21556 z m 0,0"
           id="path1865"
           inkscape:transform-center-x="4.6415641"
           inkscape:transform-center-y="-23.110579"
           style="fill:#1206fb;fill-opacity:1;stroke:none;stroke-opacity:1" />
        <path
           fill-rule="nonzero"
           fill="#ffffff"
           fill-opacity="1"
           stroke-width="2.66998"
           stroke-linecap="butt"
           stroke-linejoin="miter"
           stroke="#000000"
           stroke-opacity="1"
           stroke-miterlimit="4"
           d="m 107.52046,62.053408 c 0,0.40932 -0.0402,0.81554 -0.12094,1.21556 -0.0806,0.40312 -0.19845,0.79073 -0.3535,1.16904 -0.15815,0.37831 -0.35041,0.73802 -0.57677,1.07601 -0.22636,0.34111 -0.48375,0.6574 -0.77523,0.94579 -0.28838,0.28838 -0.60468,0.54576 -0.94268,0.77522 -0.3411,0.22637 -0.7008,0.41863 -1.07912,0.57367 -0.3752,0.15815 -0.76593,0.27598 -1.16594,0.35661 -0.40312,0.0776 -0.80623,0.11783 -1.21555,0.11783 -0.40932,0 -0.81554,-0.0403 -1.21557,-0.11783 -0.403107,-0.0806 -0.790717,-0.19846 -1.169027,-0.35661 -0.37832,-0.15504 -0.73802,-0.3473 -1.07913,-0.57367 -0.33799,-0.22946 -0.65429,-0.48684 -0.94267,-0.77522 -0.28839,-0.28839 -0.54887,-0.60468 -0.77523,-0.94579 -0.22637,-0.33799 -0.41863,-0.6977 -0.57677,-1.07601 -0.15505,-0.37831 -0.27288,-0.76592 -0.35351,-1.16904 -0.0806,-0.40002 -0.11783,-0.80624 -0.11783,-1.21556 0,-0.40932 0.0372,-0.81244 0.11783,-1.21556 0.0806,-0.40002 0.19846,-0.79074 0.35351,-1.16905 0.15814,-0.37521 0.3504,-0.73491 0.57677,-1.07601 0.22636,-0.3411 0.48684,-0.6543 0.77523,-0.94268 0.28838,-0.29149 0.60468,-0.54887 0.94267,-0.77523 0.34111,-0.22947 0.70081,-0.41862 1.07913,-0.57677 0.37831,-0.15505 0.76592,-0.27288 1.169027,-0.3535 0.40003,-0.0806 0.80625,-0.12094 1.21557,-0.12094 0.40932,0 0.81243,0.0403 1.21555,0.12094 0.40001,0.0806 0.79074,0.19845 1.16594,0.3535 0.37832,0.15814 0.73802,0.3473 1.07912,0.57677 0.338,0.22636 0.6543,0.48374 0.94268,0.77523 0.29148,0.28838 0.54887,0.60158 0.77523,0.94268 0.22636,0.3411 0.41862,0.7008 0.57677,1.07602 0.15505,0.37831 0.27288,0.76902 0.3535,1.16904 0.0806,0.40312 0.12094,0.80624 0.12094,1.21556 z m 0,0"
           id="path1867"
           inkscape:transform-center-x="4.6415641"
           inkscape:transform-center-y="-23.110579"
           style="fill:#1206fb;fill-opacity:1;stroke:none;stroke-opacity:1" />
      </g>
      <path
         id="lpe_path-effect1879"
         class="powerclip"
         d="M 38.722656,28.632813 H 104.78125 V 94.691406 H 38.722656 Z m 9.358617,33.436003 c 0,-0.40932 -0.04034,-0.81244 -0.12094,-1.21556 -0.08062,-0.40002 -0.19845,-0.79073 -0.3535,-1.16904 -0.15815,-0.37522 -0.35041,-0.73492 -0.57677,-1.07602 -0.22636,-0.3411 -0.48375,-0.6543 -0.77523,-0.94268 -0.28838,-0.29149 -0.60468,-0.54887 -0.94268,-0.77523 -0.3411,-0.22947 -0.7008,-0.41863 -1.07912,-0.57677 -0.3752,-0.15505 -0.76593,-0.2729 -1.16594,-0.3535 -0.40312,-0.08064 -0.80623,-0.12094 -1.21555,-0.12094 -0.40932,0 -0.81554,0.04034 -1.21556,0.12094 -0.40312,0.08062 -0.79073,0.19845 -1.16904,0.3535 -0.37832,0.15815 -0.73802,0.3473 -1.07912,0.57677 -0.338,0.22636 -0.6543,0.48374 -0.94268,0.77523 -0.28838,0.28838 -0.54887,0.60158 -0.77523,0.94268 -0.22637,0.3411 -0.41863,0.7008 -0.576767,1.07601 -0.15505,0.37831 -0.27291,0.76903 -0.35351,1.16905 -0.08063,0.40312 -0.11783,0.80624 -0.11783,1.21556 0,0.40932 0.03723,0.81554 0.11783,1.21556 0.08064,0.40312 0.19846,0.79073 0.35351,1.16904 0.158137,0.37831 0.350397,0.73802 0.576767,1.07601 0.22636,0.34111 0.48685,0.6574 0.77523,0.94579 0.28838,0.28838 0.60468,0.54576 0.94268,0.77522 0.3411,0.22637 0.7008,0.41863 1.07912,0.57367 0.37831,0.15815 0.76592,0.27601 1.16904,0.35661 0.40002,0.07753 0.80624,0.11783 1.21556,0.11783 0.40932,0 0.81243,-0.04023 1.21555,-0.11783 0.40001,-0.08063 0.79074,-0.19846 1.16594,-0.35661 0.37832,-0.15504 0.73802,-0.3473 1.07912,-0.57367 0.338,-0.22946 0.6543,-0.48684 0.94268,-0.77522 0.29148,-0.28839 0.54887,-0.60468 0.77523,-0.94579 0.22636,-0.33799 0.41862,-0.6977 0.57677,-1.07601 0.15505,-0.37831 0.2729,-0.76592 0.3535,-1.16904 0.08074,-0.40002 0.12094,-0.80624 0.12094,-1.21556 z" />
    </clipPath>
    <clipPath
       clipPathUnits="userSpaceOnUse"
       id="clipPath1930">
      <path
         fill-rule="nonzero"
         fill="#ffffff"
         fill-opacity="1"
         stroke-width="3.57224"
         stroke-linecap="butt"
         stroke-linejoin="miter"
         stroke="#000000"
         stroke-opacity="1"
         stroke-miterlimit="4"
         d="m 63.8294,82.54376 c 0,0.547642 -0.05378,1.091136 -0.161808,1.626335 -0.107838,0.539346 -0.265513,1.057942 -0.47296,1.564094 -0.211593,0.506152 -0.468823,0.98742 -0.771677,1.439627 -0.302855,0.456381 -0.647224,0.879555 -1.037204,1.265401 -0.385833,0.385833 -0.80902,0.730189 -1.261241,1.037191 -0.456368,0.302867 -0.937621,0.560097 -1.443787,0.76753 -0.501991,0.211594 -1.024761,0.369243 -1.559946,0.477119 -0.539348,0.103824 -1.078681,0.157649 -1.626322,0.157649 -0.547642,0 -1.091136,-0.05391 -1.626334,-0.157649 -0.539348,-0.107836 -1.057943,-0.265525 -1.564095,-0.477119 -0.506166,-0.207433 -0.987419,-0.464663 -1.443788,-0.76753 -0.45222,-0.307002 -0.875407,-0.651358 -1.26124,-1.037191 -0.385832,-0.385846 -0.734349,-0.80902 -1.037204,-1.265401 C 48.258927,86.721609 48.001696,86.240341 47.790121,85.734189 47.582674,85.228037 47.425039,84.709441 47.317148,84.170095 47.209311,83.634896 47.1595,83.091402 47.1595,82.54376 c 0,-0.547642 0.04977,-1.086988 0.157648,-1.626334 0.107838,-0.535199 0.265526,-1.057955 0.472973,-1.564108 0.211575,-0.502005 0.468806,-0.983259 0.771673,-1.439627 0.302855,-0.456368 0.651372,-0.875408 1.037204,-1.26124 0.385833,-0.389994 0.80902,-0.73435 1.26124,-1.037203 0.456369,-0.307015 0.937622,-0.560085 1.443788,-0.771679 0.506152,-0.207446 1.024747,-0.365094 1.564095,-0.472958 0.535198,-0.107837 1.078692,-0.16181 1.626334,-0.16181 0.547641,0 1.086974,0.05392 1.626322,0.16181 0.535185,0.107837 1.057955,0.265512 1.559946,0.472958 0.506166,0.21158 0.987419,0.464664 1.443787,0.771679 0.452221,0.302853 0.875408,0.647209 1.261241,1.037203 0.38998,0.385832 0.734349,0.804872 1.037204,1.26124 0.302854,0.456368 0.560084,0.937622 0.771677,1.439641 0.207447,0.506152 0.365095,1.028895 0.47296,1.564094 0.107836,0.539346 0.161808,1.078692 0.161808,1.626334 z m 0,0"
         id="path1932"
         inkscape:transform-center-x="4.6415641"
         inkscape:transform-center-y="-23.110579"
         style="display:none;fill:#1206fb;fill-opacity:1;stroke:none;stroke-opacity:1" />
      <path
         id="lpe_path-effect1942"
         style="fill:#1206fb;fill-opacity:1;stroke:none;stroke-opacity:1"
         class="powerclip"
         d="m 37.750109,64.74914 h 35.499247 v 35.49925 H 37.750109 Z M 63.8294,82.54376 c 0,-0.547642 -0.05397,-1.086988 -0.161808,-1.626334 -0.107865,-0.535199 -0.265513,-1.057942 -0.47296,-1.564094 -0.211593,-0.502019 -0.468823,-0.983273 -0.771677,-1.439641 -0.302855,-0.456368 -0.647224,-0.875408 -1.037204,-1.26124 -0.385833,-0.389994 -0.80902,-0.73435 -1.261241,-1.037203 -0.456368,-0.307015 -0.937621,-0.560099 -1.443787,-0.771679 -0.501991,-0.207446 -1.024761,-0.365121 -1.559946,-0.472958 -0.539348,-0.10789 -1.078681,-0.16181 -1.626322,-0.16181 -0.547642,0 -1.091136,0.05397 -1.626334,0.16181 -0.539348,0.107864 -1.057943,0.265512 -1.564095,0.472958 -0.506166,0.211594 -0.987419,0.464664 -1.443788,0.771679 -0.45222,0.302853 -0.875407,0.647209 -1.26124,1.037203 -0.385832,0.385832 -0.734349,0.804872 -1.037204,1.26124 -0.302867,0.456368 -0.560098,0.937622 -0.771673,1.439627 -0.207447,0.506153 -0.365135,1.028909 -0.472973,1.564108 -0.107878,0.539346 -0.157648,1.078692 -0.157648,1.626334 0,0.547642 0.04981,1.091136 0.157648,1.626335 0.107891,0.539346 0.265526,1.057942 0.472973,1.564094 0.211575,0.506152 0.468806,0.98742 0.771673,1.439627 0.302855,0.456381 0.651372,0.879555 1.037204,1.265401 0.385833,0.385833 0.80902,0.730189 1.26124,1.037191 0.456369,0.302867 0.937622,0.560097 1.443788,0.76753 0.506152,0.211594 1.024747,0.369283 1.564095,0.477119 0.535198,0.103739 1.078692,0.157649 1.626334,0.157649 0.547641,0 1.086974,-0.05382 1.626322,-0.157649 0.535185,-0.107876 1.057955,-0.265525 1.559946,-0.477119 0.506166,-0.207433 0.987419,-0.464663 1.443787,-0.76753 0.452221,-0.307002 0.875408,-0.651358 1.261241,-1.037191 0.38998,-0.385846 0.734349,-0.80902 1.037204,-1.265401 0.302854,-0.452207 0.560084,-0.933475 0.771677,-1.439627 0.207447,-0.506152 0.365122,-1.024748 0.47296,-1.564094 C 63.77562,83.634896 63.8294,83.091402 63.8294,82.54376 Z" />
    </clipPath>
    <clipPath
       clipPathUnits="userSpaceOnUse"
       id="clipPath1934">
      <path
         fill-rule="nonzero"
         fill="#ffffff"
         fill-opacity="1"
         stroke-width="2.66998"
         stroke-linecap="butt"
         stroke-linejoin="miter"
         stroke="#000000"
         stroke-opacity="1"
         stroke-miterlimit="4"
         d="m 48.081273,62.068816 c 0,0.40932 -0.0402,0.81554 -0.12094,1.21556 -0.0806,0.40312 -0.19845,0.79073 -0.3535,1.16904 -0.15815,0.37831 -0.35041,0.73802 -0.57677,1.07601 -0.22636,0.34111 -0.48375,0.6574 -0.77523,0.94579 -0.28838,0.28838 -0.60468,0.54576 -0.94268,0.77522 -0.3411,0.22637 -0.7008,0.41863 -1.07912,0.57367 -0.3752,0.15815 -0.76593,0.27598 -1.16594,0.35661 -0.40312,0.0776 -0.80623,0.11783 -1.21555,0.11783 -0.40932,0 -0.81554,-0.0403 -1.21556,-0.11783 -0.40312,-0.0806 -0.79073,-0.19846 -1.16904,-0.35661 -0.37832,-0.15504 -0.73802,-0.3473 -1.07912,-0.57367 -0.338,-0.22946 -0.6543,-0.48684 -0.94268,-0.77522 -0.28838,-0.28839 -0.54887,-0.60468 -0.77523,-0.94579 -0.22637,-0.33799 -0.41863,-0.6977 -0.576767,-1.07601 -0.15505,-0.37831 -0.27287,-0.76592 -0.35351,-1.16904 -0.0806,-0.40002 -0.11783,-0.80624 -0.11783,-1.21556 0,-0.40932 0.0372,-0.81244 0.11783,-1.21556 0.0806,-0.40002 0.19846,-0.79074 0.35351,-1.16905 0.158137,-0.37521 0.350397,-0.73491 0.576767,-1.07601 0.22636,-0.3411 0.48685,-0.6543 0.77523,-0.94268 0.28838,-0.29149 0.60468,-0.54887 0.94268,-0.77523 0.3411,-0.22947 0.7008,-0.41862 1.07912,-0.57677 0.37831,-0.15505 0.76592,-0.27288 1.16904,-0.3535 0.40002,-0.0806 0.80624,-0.12094 1.21556,-0.12094 0.40932,0 0.81243,0.0403 1.21555,0.12094 0.40001,0.0806 0.79074,0.19845 1.16594,0.3535 0.37832,0.15814 0.73802,0.3473 1.07912,0.57677 0.338,0.22636 0.6543,0.48374 0.94268,0.77523 0.29148,0.28838 0.54887,0.60158 0.77523,0.94268 0.22636,0.3411 0.41862,0.7008 0.57677,1.07602 0.15505,0.37831 0.27288,0.76902 0.3535,1.16904 0.0806,0.40312 0.12094,0.80624 0.12094,1.21556 z m 0,0"
         id="path1936"
         inkscape:transform-center-x="4.6415641"
         inkscape:transform-center-y="-23.110579"
         style="display:none;fill:#1206fb;fill-opacity:1;stroke:none;stroke-opacity:1" />
      <path
         id="lpe_path-effect1946"
         style="fill:#1206fb;fill-opacity:1;stroke:none;stroke-opacity:1"
         class="powerclip"
         d="M 36.480408,26.390559 H 107.02356 V 96.933717 H 36.480408 Z m 11.600865,35.678257 c 0,-0.40932 -0.04034,-0.81244 -0.12094,-1.21556 -0.08062,-0.40002 -0.19845,-0.79073 -0.3535,-1.16904 -0.15815,-0.37522 -0.35041,-0.73492 -0.57677,-1.07602 -0.22636,-0.3411 -0.48375,-0.6543 -0.77523,-0.94268 -0.28838,-0.29149 -0.60468,-0.54887 -0.94268,-0.77523 -0.3411,-0.22947 -0.7008,-0.41863 -1.07912,-0.57677 -0.3752,-0.15505 -0.76593,-0.2729 -1.16594,-0.3535 -0.40312,-0.08064 -0.80623,-0.12094 -1.21555,-0.12094 -0.40932,0 -0.81554,0.04034 -1.21556,0.12094 -0.40312,0.08062 -0.79073,0.19845 -1.16904,0.3535 -0.37832,0.15815 -0.73802,0.3473 -1.07912,0.57677 -0.338,0.22636 -0.6543,0.48374 -0.94268,0.77523 -0.28838,0.28838 -0.54887,0.60158 -0.77523,0.94268 -0.22637,0.3411 -0.41863,0.7008 -0.576767,1.07601 -0.15505,0.37831 -0.27291,0.76903 -0.35351,1.16905 -0.08063,0.40312 -0.11783,0.80624 -0.11783,1.21556 0,0.40932 0.03723,0.81554 0.11783,1.21556 0.08064,0.40312 0.19846,0.79073 0.35351,1.16904 0.158137,0.37831 0.350397,0.73802 0.576767,1.07601 0.22636,0.34111 0.48685,0.6574 0.77523,0.94579 0.28838,0.28838 0.60468,0.54576 0.94268,0.77522 0.3411,0.22637 0.7008,0.41863 1.07912,0.57367 0.37831,0.15815 0.76592,0.27601 1.16904,0.35661 0.40002,0.07753 0.80624,0.11783 1.21556,0.11783 0.40932,0 0.81243,-0.04023 1.21555,-0.11783 0.40001,-0.08063 0.79074,-0.19846 1.16594,-0.35661 0.37832,-0.15504 0.73802,-0.3473 1.07912,-0.57367 0.338,-0.22946 0.6543,-0.48684 0.94268,-0.77522 0.29148,-0.28839 0.54887,-0.60468 0.77523,-0.94579 0.22636,-0.33799 0.41862,-0.6977 0.57677,-1.07601 0.15505,-0.37831 0.2729,-0.76592 0.3535,-1.16904 0.08074,-0.40002 0.12094,-0.80624 0.12094,-1.21556 z" />
    </clipPath>
    <clipPath
       clipPathUnits="userSpaceOnUse"
       id="clipPath1938">
      <path
         fill-rule="nonzero"
         fill="#ffffff"
         fill-opacity="1"
         stroke-width="2.66998"
         stroke-linecap="butt"
         stroke-linejoin="miter"
         stroke="#000000"
         stroke-opacity="1"
         stroke-miterlimit="4"
         d="m 48.081273,62.068816 c 0,0.40932 -0.0402,0.81554 -0.12094,1.21556 -0.0806,0.40312 -0.19845,0.79073 -0.3535,1.16904 -0.15815,0.37831 -0.35041,0.73802 -0.57677,1.07601 -0.22636,0.34111 -0.48375,0.6574 -0.77523,0.94579 -0.28838,0.28838 -0.60468,0.54576 -0.94268,0.77522 -0.3411,0.22637 -0.7008,0.41863 -1.07912,0.57367 -0.3752,0.15815 -0.76593,0.27598 -1.16594,0.35661 -0.40312,0.0776 -0.80623,0.11783 -1.21555,0.11783 -0.40932,0 -0.81554,-0.0403 -1.21556,-0.11783 -0.40312,-0.0806 -0.79073,-0.19846 -1.16904,-0.35661 -0.37832,-0.15504 -0.73802,-0.3473 -1.07912,-0.57367 -0.338,-0.22946 -0.6543,-0.48684 -0.94268,-0.77522 -0.28838,-0.28839 -0.54887,-0.60468 -0.77523,-0.94579 -0.22637,-0.33799 -0.41863,-0.6977 -0.576767,-1.07601 -0.15505,-0.37831 -0.27287,-0.76592 -0.35351,-1.16904 -0.0806,-0.40002 -0.11783,-0.80624 -0.11783,-1.21556 0,-0.40932 0.0372,-0.81244 0.11783,-1.21556 0.0806,-0.40002 0.19846,-0.79074 0.35351,-1.16905 0.158137,-0.37521 0.350397,-0.73491 0.576767,-1.07601 0.22636,-0.3411 0.48685,-0.6543 0.77523,-0.94268 0.28838,-0.29149 0.60468,-0.54887 0.94268,-0.77523 0.3411,-0.22947 0.7008,-0.41862 1.07912,-0.57677 0.37831,-0.15505 0.76592,-0.27288 1.16904,-0.3535 0.40002,-0.0806 0.80624,-0.12094 1.21556,-0.12094 0.40932,0 0.81243,0.0403 1.21555,0.12094 0.40001,0.0806 0.79074,0.19845 1.16594,0.3535 0.37832,0.15814 0.73802,0.3473 1.07912,0.57677 0.338,0.22636 0.6543,0.48374 0.94268,0.77523 0.29148,0.28838 0.54887,0.60158 0.77523,0.94268 0.22636,0.3411 0.41862,0.7008 0.57677,1.07602 0.15505,0.37831 0.27288,0.76902 0.3535,1.16904 0.0806,0.40312 0.12094,0.80624 0.12094,1.21556 z m 0,0"
         id="path1940"
         inkscape:transform-center-x="4.6415641"
         inkscape:transform-center-y="-23.110579"
         style="display:none;fill:#1206fb;fill-opacity:1;stroke:none;stroke-opacity:1" />
      <path
         id="lpe_path-effect1950"
         style="fill:#1206fb;fill-opacity:1;stroke:none;stroke-opacity:1"
         class="powerclip"
         d="M 38.722656,28.632813 H 104.78125 V 94.691406 H 38.722656 Z m 9.358617,33.436003 c 0,-0.40932 -0.04034,-0.81244 -0.12094,-1.21556 -0.08062,-0.40002 -0.19845,-0.79073 -0.3535,-1.16904 -0.15815,-0.37522 -0.35041,-0.73492 -0.57677,-1.07602 -0.22636,-0.3411 -0.48375,-0.6543 -0.77523,-0.94268 -0.28838,-0.29149 -0.60468,-0.54887 -0.94268,-0.77523 -0.3411,-0.22947 -0.7008,-0.41863 -1.07912,-0.57677 -0.3752,-0.15505 -0.76593,-0.2729 -1.16594,-0.3535 -0.40312,-0.08064 -0.80623,-0.12094 -1.21555,-0.12094 -0.40932,0 -0.81554,0.04034 -1.21556,0.12094 -0.40312,0.08062 -0.79073,0.19845 -1.16904,0.3535 -0.37832,0.15815 -0.73802,0.3473 -1.07912,0.57677 -0.338,0.22636 -0.6543,0.48374 -0.94268,0.77523 -0.28838,0.28838 -0.54887,0.60158 -0.77523,0.94268 -0.22637,0.3411 -0.41863,0.7008 -0.576767,1.07601 -0.15505,0.37831 -0.27291,0.76903 -0.35351,1.16905 -0.08063,0.40312 -0.11783,0.80624 -0.11783,1.21556 0,0.40932 0.03723,0.81554 0.11783,1.21556 0.08064,0.40312 0.19846,0.79073 0.35351,1.16904 0.158137,0.37831 0.350397,0.73802 0.576767,1.07601 0.22636,0.34111 0.48685,0.6574 0.77523,0.94579 0.28838,0.28838 0.60468,0.54576 0.94268,0.77522 0.3411,0.22637 0.7008,0.41863 1.07912,0.57367 0.37831,0.15815 0.76592,0.27601 1.16904,0.35661 0.40002,0.07753 0.80624,0.11783 1.21556,0.11783 0.40932,0 0.81243,-0.04023 1.21555,-0.11783 0.40001,-0.08063 0.79074,-0.19846 1.16594,-0.35661 0.37832,-0.15504 0.73802,-0.3473 1.07912,-0.57367 0.338,-0.22946 0.6543,-0.48684 0.94268,-0.77522 0.29148,-0.28839 0.54887,-0.60468 0.77523,-0.94579 0.22636,-0.33799 0.41862,-0.6977 0.57677,-1.07601 0.15505,-0.37831 0.2729,-0.76592 0.3535,-1.16904 0.08074,-0.40002 0.12094,-0.80624 0.12094,-1.21556 z" />
    </clipPath>
    <clipPath
       clipPathUnits="userSpaceOnUse"
       id="clipPath1964">
      <path
         fill-rule="nonzero"
         fill="#ffffff"
         fill-opacity="1"
         stroke-width="2.66998"
         stroke-linecap="butt"
         stroke-linejoin="miter"
         stroke="#000000"
         stroke-opacity="1"
         stroke-miterlimit="4"
         d="m 107.58274,62.087134 c 0,0.40932 -0.0402,0.81554 -0.12094,1.21556 -0.0806,0.40312 -0.19845,0.79073 -0.3535,1.16904 -0.15815,0.37831 -0.35041,0.73802 -0.57677,1.07601 -0.22636,0.34111 -0.48375,0.6574 -0.77523,0.94579 -0.28838,0.28838 -0.60468,0.54576 -0.94268,0.77522 -0.3411,0.22637 -0.7008,0.41863 -1.07912,0.57367 -0.3752,0.15815 -0.76593,0.27598 -1.16594,0.35661 -0.40312,0.0776 -0.80623,0.11783 -1.21555,0.11783 -0.40932,0 -0.81554,-0.0403 -1.21556,-0.11783 -0.403125,-0.0806 -0.790732,-0.19846 -1.16904,-0.35661 -0.378322,-0.15504 -0.738022,-0.3473 -1.079122,-0.57367 -0.338003,-0.22946 -0.6543,-0.48684 -0.942683,-0.77522 -0.288375,-0.28839 -0.548865,-0.60468 -0.77523,-0.94579 -0.226365,-0.33799 -0.418627,-0.6977 -0.576765,-1.07601 -0.155055,-0.37831 -0.272872,-0.76592 -0.353512,-1.16904 -0.0806,-0.40002 -0.117833,-0.80624 -0.117833,-1.21556 0,-0.40932 0.0372,-0.81244 0.117833,-1.21556 0.0806,-0.40002 0.198457,-0.79074 0.353512,-1.16905 0.158138,-0.37521 0.3504,-0.73491 0.576765,-1.07601 0.226365,-0.3411 0.486855,-0.6543 0.77523,-0.94268 0.288383,-0.29149 0.60468,-0.54887 0.942683,-0.77523 0.3411,-0.22947 0.7008,-0.41862 1.079122,-0.57677 0.378308,-0.15505 0.765915,-0.27288 1.16904,-0.3535 0.40002,-0.0806 0.80624,-0.12094 1.21556,-0.12094 0.40932,0 0.81243,0.0403 1.21555,0.12094 0.40001,0.0806 0.79074,0.19845 1.16594,0.3535 0.37832,0.15814 0.73802,0.3473 1.07912,0.57677 0.338,0.22636 0.6543,0.48374 0.94268,0.77523 0.29148,0.28838 0.54887,0.60158 0.77523,0.94268 0.22636,0.3411 0.41862,0.7008 0.57677,1.07602 0.15505,0.37831 0.27288,0.76902 0.3535,1.16904 0.0806,0.40312 0.12094,0.80624 0.12094,1.21556 z m 0,0"
         id="path1966"
         inkscape:transform-center-x="4.6415641"
         inkscape:transform-center-y="-23.110579"
         style="display:none;fill:#1206fb;fill-opacity:1;stroke:none;stroke-opacity:1" />
      <path
         id="lpe_path-effect1968"
         style="fill:#1206fb;fill-opacity:1;stroke:none;stroke-opacity:1"
         class="powerclip"
         d="M 27.326126,26.390559 H 107.02356 V 96.933717 H 27.326126 Z m 80.256614,35.696575 c 0,-0.40932 -0.0403,-0.81244 -0.12094,-1.21556 -0.0806,-0.40002 -0.19845,-0.79073 -0.3535,-1.16904 -0.15815,-0.37522 -0.35041,-0.73492 -0.57677,-1.07602 -0.22636,-0.3411 -0.48375,-0.6543 -0.77523,-0.94268 -0.28838,-0.29149 -0.60468,-0.54887 -0.94268,-0.77523 -0.3411,-0.22947 -0.7008,-0.41863 -1.07912,-0.57677 -0.3752,-0.15505 -0.76593,-0.2729 -1.16594,-0.3535 -0.40312,-0.08064 -0.80623,-0.12094 -1.21555,-0.12094 -0.40932,0 -0.81554,0.04034 -1.21556,0.12094 -0.403125,0.08062 -0.790732,0.19845 -1.16904,0.3535 -0.378322,0.15815 -0.738022,0.3473 -1.079122,0.57677 -0.338003,0.22636 -0.6543,0.48374 -0.942683,0.77523 -0.288375,0.28838 -0.548865,0.60158 -0.77523,0.94268 -0.226365,0.3411 -0.418627,0.7008 -0.576765,1.07601 -0.155055,0.37831 -0.272912,0.76903 -0.353512,1.16905 -0.08063,0.40312 -0.117833,0.80624 -0.117833,1.21556 0,0.40932 0.03723,0.81554 0.117833,1.21556 0.08064,0.40312 0.198457,0.79073 0.353512,1.16904 0.158138,0.37831 0.3504,0.73802 0.576765,1.07601 0.226365,0.34111 0.486855,0.6574 0.77523,0.94579 0.288383,0.28838 0.60468,0.54576 0.942683,0.77522 0.3411,0.22637 0.7008,0.41863 1.079122,0.57367 0.378308,0.15815 0.765915,0.27601 1.16904,0.35661 0.40002,0.07753 0.80624,0.11783 1.21556,0.11783 0.40932,0 0.81243,-0.04023 1.21555,-0.11783 0.40001,-0.08063 0.79074,-0.19846 1.16594,-0.35661 0.37832,-0.15504 0.73802,-0.3473 1.07912,-0.57367 0.338,-0.22946 0.6543,-0.48684 0.94268,-0.77522 0.29148,-0.28839 0.54887,-0.60468 0.77523,-0.94579 0.22636,-0.33799 0.41862,-0.6977 0.57677,-1.07601 0.15505,-0.37831 0.2729,-0.76592 0.3535,-1.16904 0.0807,-0.40002 0.12094,-0.80624 0.12094,-1.21556 z" />
    </clipPath>
    <clipPath
       clipPathUnits="userSpaceOnUse"
       id="clipPath399">
      <path
         fill-rule="nonzero"
         fill="#ffffff"
         fill-opacity="1"
         d="m 71.835938,49.714844 c -0.84375,0 -1.667969,0.08984 -2.53125,0.257812 V 45.132813 C 70.175781,45.011719 71,44.949219 71.835938,44.949219 c 4.33203,0 8.277345,1.652344 11.246092,4.363281 l 2.19141,-2.191406 c 0.75,-0.75 2.031248,-0.21875 2.031248,0.84375 V 55.8125 c 0,0.652344 -0.535155,1.1875 -1.191405,1.1875 h -7.847655 c -1.054688,0 -1.59375,-1.285156 -0.83985,-2.03125 l 2.28516,-2.285156 c -2.09766,-1.847656 -4.855469,-2.96875 -7.875,-2.96875 z M 59.925781,61.625 c 0,0.835938 0.08203,1.636719 0.242188,2.417969 H 55.335938 C 55.21875,63.253906 55.160156,62.453125 55.160156,61.625 c 0,-4.265625 1.605469,-8.167969 4.246094,-11.117187 L 57.210938,48.3125 c -0.75,-0.75 -0.21875,-2.03125 0.777343,-2.03125 h 7.914063 c 0.652344,0 1.191406,0.53125 1.191406,1.1875 v 7.84375 c 0,1.0625 -1.289062,1.59375 -2.035156,0.847656 L 62.78125,53.882813 C 61,55.96875 59.925781,58.667969 59.925781,61.625 Z M 66.25,68.527344 64.089844,70.679688 c 2.085937,1.785156 4.789062,2.859375 7.746094,2.859375 0.789062,0 1.554687,-0.07813 2.300781,-0.21875 v 4.82422 c -0.753906,0.105465 -1.519531,0.156247 -2.300781,0.156247 -4.265625,0 -8.167969,-1.66797 -11.117188,-4.242186 l -2.316406,2.316404 c -0.75,0.75 -2.035156,0.214845 -2.035156,-0.84375 v -7.847654 c 0,-0.652344 0.535156,-1.1875 1.191406,-1.1875 h 7.84375 c 0.996094,0 1.59375,1.277344 0.847656,2.03125 z m 12.36719,-1.191406 2.160158,2.160156 c 1.851555,-2.09375 2.968747,-4.847656 2.968747,-7.871094 0,-0.804687 -0.07425,-1.585937 -0.230467,-2.34375 h 4.832025 c 0.113287,0.765625 0.16407,1.546875 0.16407,2.34375 0,4.332031 -1.652348,8.277344 -4.355475,11.25 l 2.308597,2.308593 c 0.75,0.75 0.214845,2.031255 -0.84375,2.031255 h -7.843747 c -0.65625,0 -1.191413,-0.535163 -1.191413,-1.191413 v -7.847654 c 0,-1.054687 1.277348,-1.59375 2.031255,-0.839843 z m 0,0"
         id="path401"
         style="display:none;stroke-width:0.999998" />
      <path
         id="lpe_path-effect403"
         style="stroke-width:0.999998"
         class="powerclip"
         d="M 27.326126,26.390559 H 115.80675 V 96.933717 H 27.326126 Z m 44.509812,23.324285 c 3.019531,0 5.77734,1.121094 7.875,2.96875 l -2.28516,2.285156 C 76.671878,55.714844 77.21094,57 78.265628,57 h 7.847655 c 0.65625,0 1.191405,-0.535156 1.191405,-1.1875 v -7.847656 c 0,-1.0625 -1.281248,-1.59375 -2.031248,-0.84375 L 83.08203,49.3125 c -2.968747,-2.710937 -6.914062,-4.363281 -11.246092,-4.363281 -0.835938,0 -1.660157,0.0625 -2.53125,0.183594 v 4.839843 c 0.863281,-0.167972 1.6875,-0.257812 2.53125,-0.257812 z M 59.925781,61.625 c 0,-2.957031 1.074219,-5.65625 2.855469,-7.742187 l 2.277344,2.277343 C 65.804688,56.90625 67.09375,56.375 67.09375,55.3125 v -7.84375 c 0,-0.65625 -0.539062,-1.1875 -1.191406,-1.1875 h -7.914063 c -0.996093,0 -1.527343,1.28125 -0.777343,2.03125 l 2.195312,2.195313 c -2.640625,2.949218 -4.246094,6.851562 -4.246094,11.117187 0,0.828125 0.05859,1.628906 0.175782,2.417969 h 4.832031 C 60.007811,63.261719 59.925781,62.460938 59.925781,61.625 Z M 66.25,68.527344 c 0.746094,-0.753906 0.148438,-2.03125 -0.847656,-2.03125 h -7.84375 c -0.65625,0 -1.191406,0.535156 -1.191406,1.1875 v 7.847654 c 0,1.058595 1.285156,1.59375 2.035156,0.84375 l 2.316406,-2.316404 c 2.949219,2.574216 6.851563,4.242186 11.117188,4.242186 0.78125,0 1.546875,-0.05078 2.300781,-0.156247 v -4.82422 c -0.746094,0.14062 -1.511719,0.21875 -2.300781,0.21875 -2.957032,0 -5.660157,-1.074219 -7.746094,-2.859375 z m 12.36719,-1.191406 c -0.753907,-0.753907 -2.031255,-0.214844 -2.031255,0.839843 v 7.847654 c 0,0.65625 0.535163,1.191413 1.191413,1.191413 h 7.843747 c 1.058595,0 1.59375,-1.281255 0.84375,-2.031255 L 84.156248,72.875 c 2.703127,-2.972656 4.355475,-6.917969 4.355475,-11.25 0,-0.796875 -0.05078,-1.578125 -0.16407,-2.34375 h -4.832025 c 0.156217,0.757813 0.230467,1.539063 0.230467,2.34375 0,3.023438 -1.117192,5.777344 -2.968747,7.871094 z" />
    </clipPath>
  </defs>
  <path
     fill="none"
     stroke-width="2.24227"
     stroke-linecap="butt"
     stroke-linejoin="miter"
     stroke="#000000"
     stroke-opacity="1"
     stroke-miterlimit="10"
     d="M 1.2750734,32.292493 H 14.466485"
     id="path10" />
  <path
     fill-rule="nonzero"
     fill="#000000"
     fill-opacity="1"
     stroke-width="2.24227"
     stroke-linecap="butt"
     stroke-linejoin="miter"
     stroke="#000000"
     stroke-opacity="1"
     stroke-miterlimit="10"
     d="m 23.435239,32.292493 -8.968754,2.992189 v -5.980471 z m 0,0"
     id="path12" />
  <g
     id="g397"
     clip-path="url(#clipPath399)"
     inkscape:path-effect="#path-effect403"
     transform="translate(-8.0686808,-29.742691)">
    <path
       fill-rule="nonzero"
       fill="#ffffff"
       fill-opacity="1"
       stroke-width="4.5"
       stroke-linecap="butt"
       stroke-linejoin="miter"
       stroke="#000000"
       stroke-opacity="1"
       stroke-miterlimit="4"
       d="m 145.50173,82.498763 c 0,0.689871 -0.0679,1.374516 -0.20383,2.048707 -0.13588,0.679418 -0.33448,1.332705 -0.59579,1.970313 -0.26655,0.637608 -0.59058,1.243858 -0.9721,1.813524 -0.38151,0.574892 -0.8153,1.107974 -1.30657,1.594019 -0.48604,0.486045 -1.01913,0.919828 -1.58879,1.306573 -0.57489,0.38152 -1.18114,0.70555 -1.81875,0.966865 -0.63238,0.266541 -1.2909,0.46514 -1.96509,0.601023 -0.67942,0.130658 -1.35883,0.1986 -2.0487,0.1986 -0.68988,0 -1.37452,-0.06794 -2.04871,-0.1986 -0.67942,-0.135883 -1.33271,-0.334482 -1.97031,-0.601023 -0.63761,-0.261315 -1.24386,-0.585345 -1.81875,-0.966865 -0.56967,-0.386745 -1.10275,-0.820528 -1.5888,-1.306573 -0.48604,-0.486045 -0.92505,-1.019127 -1.30657,-1.594019 -0.38152,-0.569666 -0.70555,-1.175916 -0.97209,-1.813524 -0.26132,-0.637608 -0.45991,-1.290895 -0.5958,-1.970313 -0.13588,-0.674191 -0.1986,-1.358836 -0.1986,-2.048707 0,-0.68987 0.0627,-1.369288 0.1986,-2.048707 0.13589,-0.674191 0.33448,-1.332704 0.5958,-1.970312 0.26654,-0.632382 0.59057,-1.238632 0.97209,-1.813524 0.38152,-0.574892 0.82053,-1.102748 1.30657,-1.588793 0.48605,-0.491272 1.01913,-0.925054 1.5888,-1.306573 0.57489,-0.386746 1.18114,-0.70555 1.81875,-0.972091 0.6376,-0.261315 1.29089,-0.459914 1.97031,-0.595797 0.67419,-0.135884 1.35883,-0.203826 2.04871,-0.203826 0.68987,0 1.36928,0.06794 2.0487,0.203826 0.67419,0.135883 1.33271,0.334482 1.96509,0.595797 0.63761,0.266541 1.24386,0.585345 1.81875,0.972091 0.56966,0.381519 1.10275,0.815301 1.58879,1.306573 0.49127,0.486045 0.92506,1.013901 1.30657,1.588793 0.38152,0.574892 0.70555,1.181142 0.9721,1.813524 0.26131,0.637608 0.45991,1.296121 0.59579,1.970312 0.13589,0.679419 0.20383,1.358837 0.20383,2.048707 z m 0,0"
       transform="matrix(0.747423,0,0,0.747423,0.373711,0.373711)"
       id="path20"
       clip-path="url(#clipPath1779)"
       inkscape:path-effect="#path-effect1791"
       inkscape:original-d="m 145.50173,82.498763 c 0,0.689871 -0.0679,1.374516 -0.20383,2.048707 -0.13588,0.679418 -0.33448,1.332705 -0.59579,1.970313 -0.26655,0.637608 -0.59058,1.243858 -0.9721,1.813524 -0.38151,0.574892 -0.8153,1.107974 -1.30657,1.594019 -0.48604,0.486045 -1.01913,0.919828 -1.58879,1.306573 -0.57489,0.38152 -1.18114,0.70555 -1.81875,0.966865 -0.63238,0.266541 -1.2909,0.46514 -1.96509,0.601023 -0.67942,0.130658 -1.35883,0.1986 -2.0487,0.1986 -0.68988,0 -1.37452,-0.06794 -2.04871,-0.1986 -0.67942,-0.135883 -1.33271,-0.334482 -1.97031,-0.601023 -0.63761,-0.261315 -1.24386,-0.585345 -1.81875,-0.966865 -0.56967,-0.386745 -1.10275,-0.820528 -1.5888,-1.306573 -0.48604,-0.486045 -0.92505,-1.019127 -1.30657,-1.594019 -0.38152,-0.569666 -0.70555,-1.175916 -0.97209,-1.813524 -0.26132,-0.637608 -0.45991,-1.290895 -0.5958,-1.970313 -0.13588,-0.674191 -0.1986,-1.358836 -0.1986,-2.048707 0,-0.68987 0.0627,-1.369288 0.1986,-2.048707 0.13589,-0.674191 0.33448,-1.332704 0.5958,-1.970312 0.26654,-0.632382 0.59057,-1.238632 0.97209,-1.813524 0.38152,-0.574892 0.82053,-1.102748 1.30657,-1.588793 0.48605,-0.491272 1.01913,-0.925054 1.5888,-1.306573 0.57489,-0.386746 1.18114,-0.70555 1.81875,-0.972091 0.6376,-0.261315 1.29089,-0.459914 1.97031,-0.595797 0.67419,-0.135884 1.35883,-0.203826 2.04871,-0.203826 0.68987,0 1.36928,0.06794 2.0487,0.203826 0.67419,0.135883 1.33271,0.334482 1.96509,0.595797 0.63761,0.266541 1.24386,0.585345 1.81875,0.972091 0.56966,0.381519 1.10275,0.815301 1.58879,1.306573 0.49127,0.486045 0.92506,1.013901 1.30657,1.588793 0.38152,0.574892 0.70555,1.181142 0.9721,1.813524 0.26131,0.637608 0.45991,1.296121 0.59579,1.970312 0.13589,0.679419 0.20383,1.358837 0.20383,2.048707 z m 0,0" />
    <g
       id="g1958"
       clip-path="url(#clipPath1964)"
       inkscape:path-effect="#path-effect1968">
      <path
         fill-rule="nonzero"
         fill="#000000"
         fill-opacity="1"
         d="m 43.722656,44.84375 c 0,-6.1875 5.023438,-11.210937 11.214844,-11.210937 h 33.632813 c 6.1875,0 11.210937,5.023437 11.210937,11.210937 v 33.636719 c 0,6.1875 -5.023437,11.210937 -11.210937,11.210937 H 54.9375 c -6.191406,0 -11.214844,-5.023437 -11.214844,-11.210937 z m 0,0"
         id="path14"
         clip-path="url(#clipPath1938)"
         inkscape:original-d="m 43.722656,44.84375 c 0,-6.1875 5.023438,-11.210937 11.214844,-11.210937 h 33.632813 c 6.1875,0 11.210937,5.023437 11.210937,11.210937 v 33.636719 c 0,6.1875 -5.023437,11.210937 -11.210937,11.210937 H 54.9375 c -6.191406,0 -11.214844,-5.023437 -11.214844,-11.210937 z m 0,0"
         inkscape:path-effect="#path-effect1823;#path-effect1879;#path-effect1950" />
      <g
         clip-path="url(#clipPath1934)"
         id="g18"
         inkscape:path-effect="#path-effect1819;#path-effect1875;#path-effect1946">
        <path
           fill="none"
           stroke-width="6"
           stroke-linecap="butt"
           stroke-linejoin="miter"
           stroke="#000000"
           stroke-opacity="1"
           stroke-miterlimit="10"
           d="m 58.497901,59.997847 c 0,-8.278449 6.721013,-14.999462 15.004688,-14.999462 h 44.998381 c 8.27845,0 14.99946,6.721013 14.99946,14.999462 v 45.003613 c 0,8.27845 -6.72101,14.99946 -14.99946,14.99946 H 73.502589 c -8.283675,0 -15.004688,-6.72101 -15.004688,-14.99946 z m 0,0"
           transform="scale(0.747423)"
           id="path16"
           inkscape:original-d="m 58.497901,59.997847 c 0,-8.278449 6.721013,-14.999462 15.004688,-14.999462 h 44.998381 c 8.27845,0 14.99946,6.721013 14.99946,14.999462 v 45.003613 c 0,8.27845 -6.72101,14.99946 -14.99946,14.99946 H 73.502589 c -8.283675,0 -15.004688,-6.72101 -15.004688,-14.99946 z m 0,0" />
      </g>
      <path
         fill-rule="nonzero"
         fill="#ffffff"
         fill-opacity="1"
         stroke-width="4.5"
         stroke-linecap="butt"
         stroke-linejoin="miter"
         stroke="#000000"
         stroke-opacity="1"
         stroke-miterlimit="4"
         d="m 65.999356,82.498763 c 0,0.689871 -0.06794,1.374516 -0.1986,2.048707 -0.135883,0.679418 -0.334482,1.332705 -0.601023,1.970313 -0.261315,0.637608 -0.585345,1.243858 -0.966865,1.813524 -0.386745,0.574892 -0.820528,1.107974 -1.306573,1.594019 -0.491271,0.486045 -1.019127,0.919828 -1.594019,1.306573 -0.569666,0.38152 -1.175916,0.70555 -1.813524,0.966865 -0.637608,0.266541 -1.296121,0.46514 -1.970313,0.601023 -0.674191,0.130658 -1.358836,0.1986 -2.048707,0.1986 -0.68987,0 -1.374515,-0.06794 -2.048707,-0.1986 -0.674191,-0.135883 -1.332704,-0.334482 -1.970312,-0.601023 -0.637608,-0.261315 -1.238632,-0.585345 -1.813524,-0.966865 -0.574892,-0.386745 -1.102748,-0.820528 -1.594019,-1.306573 -0.486046,-0.486045 -0.919828,-1.019127 -1.301347,-1.594019 -0.386746,-0.569666 -0.710776,-1.175916 -0.972091,-1.813524 -0.266541,-0.637608 -0.46514,-1.290895 -0.595797,-1.970313 -0.135884,-0.674191 -0.203826,-1.358836 -0.203826,-2.048707 0,-0.68987 0.06794,-1.369288 0.203826,-2.048707 0.130657,-0.674191 0.329256,-1.332704 0.595797,-1.970312 0.261315,-0.632382 0.585345,-1.238632 0.972091,-1.813524 0.381519,-0.574892 0.815301,-1.102748 1.301347,-1.588793 0.491271,-0.491272 1.019127,-0.925054 1.594019,-1.306573 0.574892,-0.386746 1.175916,-0.70555 1.813524,-0.972091 0.637608,-0.261315 1.296121,-0.459914 1.970312,-0.595797 0.674192,-0.135884 1.358837,-0.203826 2.048707,-0.203826 0.689871,0 1.374516,0.06794 2.048707,0.203826 0.674192,0.135883 1.332705,0.334482 1.970313,0.595797 0.637608,0.266541 1.243858,0.585345 1.813524,0.972091 0.574892,0.381519 1.102748,0.815301 1.594019,1.306573 0.486045,0.486045 0.919828,1.013901 1.306573,1.588793 0.38152,0.574892 0.70555,1.181142 0.966865,1.813524 0.266541,0.637608 0.46514,1.296121 0.601023,1.970312 0.130658,0.679419 0.1986,1.358837 0.1986,2.048707 z m 0,0"
         transform="matrix(0.747423,0,0,0.747423,0.373711,0.373711)"
         id="path22"
         clip-path="url(#clipPath1930)"
         inkscape:original-d="m 65.999356,82.498763 c 0,0.689871 -0.06794,1.374516 -0.1986,2.048707 -0.135883,0.679418 -0.334482,1.332705 -0.601023,1.970313 -0.261315,0.637608 -0.585345,1.243858 -0.966865,1.813524 -0.386745,0.574892 -0.820528,1.107974 -1.306573,1.594019 -0.491271,0.486045 -1.019127,0.919828 -1.594019,1.306573 -0.569666,0.38152 -1.175916,0.70555 -1.813524,0.966865 -0.637608,0.266541 -1.296121,0.46514 -1.970313,0.601023 -0.674191,0.130658 -1.358836,0.1986 -2.048707,0.1986 -0.68987,0 -1.374515,-0.06794 -2.048707,-0.1986 -0.674191,-0.135883 -1.332704,-0.334482 -1.970312,-0.601023 -0.637608,-0.261315 -1.238632,-0.585345 -1.813524,-0.966865 -0.574892,-0.386745 -1.102748,-0.820528 -1.594019,-1.306573 -0.486046,-0.486045 -0.919828,-1.019127 -1.301347,-1.594019 -0.386746,-0.569666 -0.710776,-1.175916 -0.972091,-1.813524 -0.266541,-0.637608 -0.46514,-1.290895 -0.595797,-1.970313 -0.135884,-0.674191 -0.203826,-1.358836 -0.203826,-2.048707 0,-0.68987 0.06794,-1.369288 0.203826,-2.048707 0.130657,-0.674191 0.329256,-1.332704 0.595797,-1.970312 0.261315,-0.632382 0.585345,-1.238632 0.972091,-1.813524 0.381519,-0.574892 0.815301,-1.102748 1.301347,-1.588793 0.491271,-0.491272 1.019127,-0.925054 1.594019,-1.306573 0.574892,-0.386746 1.175916,-0.70555 1.813524,-0.972091 0.637608,-0.261315 1.296121,-0.459914 1.970312,-0.595797 0.674192,-0.135884 1.358837,-0.203826 2.048707,-0.203826 0.689871,0 1.374516,0.06794 2.048707,0.203826 0.674192,0.135883 1.332705,0.334482 1.970313,0.595797 0.637608,0.266541 1.243858,0.585345 1.813524,0.972091 0.574892,0.381519 1.102748,0.815301 1.594019,1.306573 0.486045,0.486045 0.919828,1.013901 1.306573,1.588793 0.38152,0.574892 0.70555,1.181142 0.966865,1.813524 0.266541,0.637608 0.46514,1.296121 0.601023,1.970312 0.130658,0.679419 0.1986,1.358837 0.1986,2.048707 z m 0,0"
         inkscape:path-effect="#path-effect1815;#path-effect1871;#path-effect1942" />
    </g>
  </g>
  <path
     fill="none"
     stroke-width="2.24227"
     stroke-linecap="butt"
     stroke-linejoin="miter"
     stroke="#000000"
     stroke-opacity="1"
     stroke-miterlimit="10"
     d="M 99.935273,32.003431 H 115.36888"
     id="path24" />
  <path
     fill-rule="nonzero"
     fill="#000000"
     fill-opacity="1"
     d="m 124.33757,32.003403 -8.96875,2.988281 v -5.980469 z m 0,0"
     id="path26" />
  <g
     clip-path="url(#clip-1)"
     id="g30"
     transform="translate(-8.0686808,-29.742691)">
    <path
       fill="none"
       stroke-width="3"
       stroke-linecap="butt"
       stroke-linejoin="miter"
       stroke="#000000"
       stroke-opacity="1"
       stroke-miterlimit="10"
       d="m 176.65044,82.112018 -11.99957,3.998114 v -8.001455 z m 0,0"
       transform="matrix(0.747423,0,0,0.747423,0.373711,0.373711)"
       id="path28" />
  </g>
</svg>
