<?xml version="1.0" encoding="UTF-8" standalone="no"?>
<svg
   width="84.637001pt"
   height="40.875pt"
   viewBox="0 0 84.637001 40.875"
   version="1.1"
   id="svg34"
   content="%3Cmxfile%20host%3D%22app.diagrams.net%22%20modified%3D%222022-12-14T14%3A43%3A57.373Z%22%20agent%3D%225.0%20(X11%3B%20Linux%20x86_64)%20AppleWebKit%2F537.36%20(KHTML%2C%20like%20Gecko)%20Chrome%2F108.0.0.0%20Safari%2F537.36%22%20version%3D%2220.6.2%22%20etag%3D%22UvKRCuwwxercsFgToLV1%22%20type%3D%22google%22%3E%3Cdiagram%20id%3D%22A-4ap7AtBI6YMje4_ARJ%22%3E7Vnvd6K8Ev5r%2BnF7wi%2BtHxVsy16DtUi7%2Bg2BRRDFi6jAX%2F%2FOhERE7Xb37J733HPPuu3GZ5JMMvPMTAK9U%2FR18ZS52yVN%2FSC5k4lf3CnGnSw%2FdLvwPwrKWiATotSSMIv8WiY1AjuqAi4kXLqP%2FGDXGpinaZJH27bQSzebwMtbMjfL0mN72Pc0aa%2B6dcPgSmB7bnItfY%2F8fMnt0kgjfw6icClWlgjvWbtiMBfslq6fHs9EyvBO0bM0zetv60IPEnSe8Es97%2FGD3tPGsmCT%2F8wEuZ5wcJM9t43vKy%2BFsWGW7rd3ymCdHtwFE0qAsmAXVec4zd38DAPlwTkO%2FOgccmbOJC3GuLzx0yHI8qD40Ejp5DqIuSBdB3lWwhA%2BoffAtfB460rknhBZq4XHhkFJku57zafzwL2xPCNTkOzyGApPyzVuhi%2Fc07e9rlw5OfAhwDjcpBtoBhAaW4TcJWnGvLzf%2BIHPXZZm%2BTIN042bjNJ0y4VxkOclTxl3n6cgWubrhPcm7iJIBq63CpkqPU1Qr%2BEH3919AhYOvqeb%2FNFdRwn6Sk%2F3WRRksFUrOPJOrlrqcHytYpe7Wd7HNGuMCTa%2BkCyS1FtNl9GmFj9Gidgcm8j1q3UvRx3Wm6WrQCx3JyuEfU49IhNlNhMY%2BQaACDBDcK8JaBTnnUbJURPj5CLGyUWMk4sYJ%2B0YJ1cxTk4xjlx%2FGMk84sATYcBF3dvBnQWJm0eHtqpbUcmnvqQRLHJKCumhlRNS717tddVT7KtaW2G9Ia7jvKAItaKWq5BBP9Czg5Dygis9LGNOxv1UEqn%2FH6VL%2FmHpElaeFamH7r9So7Qb7u2w%2FN62nNz57z4VhePLjqVrHwYonW3BXCP64VvIW6ZlkV1KYEfbRnZB5RYjhpmjDeCH3OMGdcJ%2BNRigM%2BEtWfdaKCESGtrCW7KudkuldGPtS5l8Q3hT5Y21ycUm4ac5FNZFiFer%2B8V2vbnP3d0K%2Bo7LKA%2FsrevhgCN0s1j3cnGunA6PwY7XcKxJqMFGrdOyPm5cDInB6WKCY8LE3e349w9OEF7n694084Psome3CnJvyZX87Cmj%2FOiUOT8OLuXiMMD0%2FA4nzK1j4%2BxYhNzN3WgTZGJ%2FMEW4jR%2BimMYROKefROEGGYh8P2GGgcejTThI8zxdQ8cX7d86SD6pLOoPK0u3Vf6%2F1DciIj6aqnV63avaIwrLny42nc9rOUyA633wQZyfcenutvWd%2F3tU1NHeigjlBt3%2F%2B2xpcvu0fsBTtqGLyNd32RvngpD9DlXdv1R9QJXgpnv7BnTOjXqDG%2FX3uXn4%2B1zx97nil2L2Nx8iPriLNs8CXeUsE7Rffabgq3TUX1L75x4xep%2FXOpFN0Zq9M7ouabzD8IFiuBrXUH7cHcI7eVBAAsn6y7Mlz8uBungv9l5FIvf5lXhGehgpvuKXmkJL7eCtvQON%2B0eq9yp%2F7UXm83w7%2F%2BbrCyXsmXE%2FpHpfolMztKbD0ozVB9MmuWkPnhZwPpvDR2X%2BzTos3p3wdfM1mdt9eRQP99QeRIE96M%2FXvb3%2F1IwZ2YPUf349ehXsQZ4fFpvXpS%2B%2FVQtZSkZrGGMPqPtuJYuNlZg6Cdl%2Bn2lnVPbWuN7sm594ci%2Bf21q8APctnpJ4%2Fq5Vc7u39tZvMGf5dSb3wNY0nBAaTpJVaOnqcaTX%2B0W5QxJqDntPU71fwF535tA6zJ%2BcjjmUvr7pzfr%2FsQfGQhlo3jrZuM%2BTEHxU0qjWA2Ng7xTmJvtZqYJdcFUZvDwPlv5TGM7XyW5hANfycus%2FOZH5NOmZK1JaUw8809csW5UooaVlOPuxznEJ2qvJ3ioBR6pCI8AxZePHuqpZ0qyiJbQwD8fBvIpGamXBOKbHBsz18HVqTGhFp84e5KK%2FsuIQMXxn6xBqAI76GtXVgjpHmOHtQa8MWB47lFiGh%2FuSEINeYsUTXE%2ByYL7VYIUms8LCuUMqZMXYmKFugnsCHcV4SveWDhjWZP2Ih2FlGdA6sNd4hXsT4wCbaAvondU2VSbqK6wYsHMEW0ymh1YOrltxHxZ02kcbynG97snHbQ6ObaxsLRxPp8i2I43iN6PBM4hsLxxPwVfQwq8yip0Q1jmOYuwPVdugMGeiTGAXo3hVmYapgI%2BIaSAeQmvKwK18hiVctx6PeIhcl6bhEFirAEygXzWNFawxhHZ4hPnl1JgBnmmm4cnYTioHMYzHPWLrwN480DfRRjGFeR5GemgZ4NtqadIp7v3VoNMQxptcHoItqwptsaazvYU2Cxw7OO8d5sE6viHkMF%2BCPSmwJ9yrRutW5lhFPDWGFdoIWKLM1mEBrYzzxky%2BUrgvCm6rcu6bt7hugxWBWGKxUGHs0NWxsKa0xhBz1KHQj5UH45m1JUXuIdYw%2FiFOBdc1diD%2FYhYbTT%2F4wAKfM16BT%2FBfATbIb8Ap8jipGJ%2Fg94kCPKmMzxJtmXBbTMyJQmCwVRszm0Q%2F8MniYcLHAZ8l64fKokpTzif2Q27Kk0rwOZExVzmfCpsfob4TJlgL3mIK9UCFeBByWsI%2BMR5Aj4NxWEIOg%2F6ZJPoR28AFtBC3Q9Vi48U4wSmtaj01p4AJxqnNMXBTcxLx%2FFwda04irDXAxQqqEOcOMpRzwLiA%2FJy1sFVz02Bjwjma1ZxCfrOaxXLSJHbNBdqswp4xbiqwAXIPsI17NYnFuDphnnMC04L7VhozmynGr8I5QW4x5%2BQp5wRwZTFuTpwgp%2BecyBbTU3MiMNQGzo3gRIwTvmYxoZxh9LEGnELFZzWCy2G%2BjXoFJ7Q85wTllNWINg4i8%2FASHw%2BeMt%2B8hHjDwJ8brxzbbzTFu4kR3sJf0l2URym%2Bo1jwdxKfvvL0ErhOf3ADrV%2BZevtsB%2FfE14C%2FOyLiatNc%2Bptb%2BeW7khyfIi7fw0h9%2FHf9fvUPPC1LWuvC%2BPkDmXLjgUz59QcygM2f7ur7ZvMHUGX4Dw%3D%3D%3C%2Fdiagram%3E%3C%2Fmxfile%3E"
   sodipodi:docname="logo-black.svg"
   inkscape:version="1.2.2 (b0a8486541, 2022-12-01)"
   xmlns:inkscape="http://www.inkscape.org/namespaces/inkscape"
   xmlns:sodipodi="http://sodipodi.sourceforge.net/DTD/sodipodi-0.dtd"
   xmlns="http://www.w3.org/2000/svg"
   xmlns:svg="http://www.w3.org/2000/svg">
  <sodipodi:namedview
     id="namedview122"
     pagecolor="#8bff00"
     bordercolor="#000000"
     borderopacity="0.25"
     inkscape:showpageshadow="2"
     inkscape:pageopacity="0"
     inkscape:pagecheckerboard="0"
     inkscape:deskcolor="#d1d1d1"
     inkscape:document-units="pt"
     showgrid="false"
     inkscape:zoom="15.013923"
     inkscape:cx="57.479979"
     inkscape:cy="30.771437"
     inkscape:window-width="2458"
     inkscape:window-height="2104"
     inkscape:window-x="2164"
     inkscape:window-y="882"
     inkscape:window-maximized="1"
     inkscape:current-layer="svg34" />
  <defs
     id="defs8">
    <clipPath
       id="clip-0">
      <path
         clip-rule="nonzero"
         d="M 0,0 H 96.960938 V 86.554688 H 0 Z m 0,0"
         id="path2" />
    </clipPath>
    <clipPath
       id="clip-1">
      <path
         clip-rule="nonzero"
         d="M 60,17 H 96.960938 V 64 H 60 Z m 0,0"
         id="path5" />
    </clipPath>
  </defs>
  <path
     fill="none"
     stroke-width="1.49231"
     stroke-linecap="butt"
     stroke-linejoin="miter"
     stroke="#000000"
     stroke-opacity="1"
     stroke-miterlimit="10"
     d="M 0.19732623,20.037427 H 10.462955"
     id="path10" />
  <path
     fill-rule="nonzero"
     fill="#000000"
     fill-opacity="1"
     stroke-width="1.49231"
     stroke-linecap="butt"
     stroke-linejoin="miter"
     stroke="#000000"
     stroke-opacity="1"
     stroke-miterlimit="10"
     d="m 16.435612,20.037427 -5.972657,1.992188 v -3.984376 z m 0,0"
     id="path12" />
  <path
     fill-rule="nonzero"
     fill="#000000"
     fill-opacity="1"
     d="m 23.701231,9.2171021 c 0,-4.117187 3.34375,-7.460937 7.460938,-7.460937 h 22.386719 c 4.117187,0 7.460937,3.34375 7.460937,7.460937 V 31.603821 c 0,4.117187 -3.34375,7.460937 -7.460937,7.460937 H 31.162169 c -4.117188,0 -7.460938,-3.34375 -7.460938,-7.460937 z m 0,0"
     id="path14" />
  <g
     clip-path="url(#clip-0)"
     id="g18"
     transform="translate(-5.7714252,-21.001648)">
    <path
       fill="none"
       stroke-width="4"
       stroke-linecap="butt"
       stroke-linejoin="miter"
       stroke="#000000"
       stroke-opacity="1"
       stroke-miterlimit="10"
       d="m 38.99944,39.999359 c 0,-5.51788 4.481315,-9.999195 9.999195,-9.999195 h 30.002822 c 5.517881,0 9.999196,4.481315 9.999196,9.999195 v 30.002822 c 0,5.517881 -4.481315,9.999196 -9.999196,9.999196 H 48.998635 c -5.51788,0 -9.999195,-4.481315 -9.999195,-9.999196 z m 0,0"
       transform="matrix(0.746154,0,0,0.746154,0.373077,0.373077)"
       id="path16" />
  </g>
  <g
     id="path20">
    <path
       style="color:#000000;fill:#ffffff;fill-opacity:1;stroke:#000000;stroke-width:2.238;stroke-dasharray:none;stroke-opacity:1"
       d="m 66.232502,20.408521 c 0,0.296874 -0.02735,0.585937 -0.08594,0.875 -0.05859,0.289063 -0.140625,0.566406 -0.253906,0.839844 -0.113281,0.269532 -0.250001,0.53125 -0.414063,0.773438 -0.164062,0.246093 -0.347657,0.472656 -0.558594,0.679687 -0.207031,0.207032 -0.433593,0.390625 -0.675782,0.554688 -0.246093,0.164063 -0.503906,0.300781 -0.777344,0.414062 -0.269531,0.113282 -0.550781,0.199219 -0.839843,0.253907 -0.285157,0.05859 -0.578125,0.08594 -0.871094,0.08594 -0.292969,0 -0.585938,-0.02735 -0.875,-0.08594 -0.289063,-0.05469 -0.566407,-0.140625 -0.839844,-0.253907 -0.269532,-0.113281 -0.527345,-0.249999 -0.773438,-0.414062 -0.242188,-0.164063 -0.468751,-0.347656 -0.679688,-0.554688 -0.207031,-0.207031 -0.390625,-0.433594 -0.554688,-0.679687 -0.164062,-0.242188 -0.300781,-0.503906 -0.414062,-0.773438 -0.113282,-0.273438 -0.195313,-0.550781 -0.253907,-0.839844 -0.0586,-0.289063 -0.08594,-0.578126 -0.08594,-0.875 0,-0.292969 0.02735,-0.582032 0.08594,-0.871095 0.0586,-0.289062 0.140625,-0.570312 0.253907,-0.839844 0.113281,-0.273437 0.25,-0.531249 0.414062,-0.773437 0.164063,-0.246094 0.347657,-0.472656 0.554688,-0.679688 0.210937,-0.207031 0.4375,-0.394531 0.679688,-0.558594 0.246093,-0.160156 0.503906,-0.300781 0.773438,-0.410156 0.273437,-0.113281 0.550781,-0.199219 0.839844,-0.257813 0.289062,-0.05469 0.582031,-0.08594 0.875,-0.08594 0.292969,0 0.585937,0.03125 0.871094,0.08594 0.289062,0.0586 0.570312,0.144532 0.839843,0.257813 0.273438,0.109375 0.531251,0.25 0.777344,0.410156 0.242189,0.164063 0.468751,0.351563 0.675782,0.558594 0.210937,0.207032 0.394532,0.433594 0.558594,0.679688 0.164062,0.242188 0.300782,0.5 0.414063,0.773437 0.113281,0.269532 0.195312,0.550782 0.253906,0.839844 0.0586,0.289063 0.08594,0.578126 0.08594,0.871095 z m 0,0"
       id="path25578" />
    <path
       style="color:#000000;fill:#000000;-inkscape-stroke:none"
       d="m 61.755859,14.8125 c -0.372558,0 -0.733763,0.03958 -1.082031,0.105469 l -0.0078,0.002 -0.0078,0.002 c -0.360663,0.07311 -0.707744,0.181557 -1.042969,0.320313 -0.346222,0.141083 -0.6663,0.315382 -0.958984,0.505859 l -0.0078,0.0059 -0.0078,0.0059 c -0.301671,0.204358 -0.580166,0.434511 -0.835938,0.685546 l -0.0039,0.0039 -0.0039,0.0039 c -0.259814,0.259815 -0.488575,0.543338 -0.689453,0.84375 -0.20783,0.306798 -0.380001,0.630987 -0.519531,0.966797 -0.146265,0.348008 -0.249393,0.700949 -0.320313,1.050781 -0.07398,0.364976 -0.107422,0.731125 -0.107422,1.09375 0,0.365589 0.03342,0.732633 0.107422,1.097656 0.07131,0.351788 0.175778,0.700761 0.318359,1.044922 v 0.0039 l 0.002,0.002 c 0.137309,0.326703 0.306176,0.654358 0.517578,0.966796 5.1e-4,7.54e-4 0.0014,0.0012 0.002,0.002 0.200677,0.299944 0.429996,0.58234 0.689453,0.841796 l 0.0039,0.0039 0.0039,0.0039 c 0.260797,0.255968 0.541098,0.483863 0.835938,0.683594 l 0.002,0.002 0.0039,0.002 c 0.307498,0.205 0.629889,0.374536 0.960938,0.513672 l 0.002,0.002 0.0039,0.002 c 0.335195,0.138868 0.688281,0.248151 1.058594,0.318359 0.362331,0.07244 0.725895,0.105469 1.083984,0.105469 0.361346,0 0.727145,-0.03475 1.091797,-0.109375 h 0.0039 c 0.363502,-0.06996 0.714216,-0.177724 1.048829,-0.318359 0.335475,-0.139456 0.659305,-0.309978 0.964843,-0.513672 l 0.0039,-0.002 0.002,-0.002 c 0.293353,-0.198723 0.575265,-0.427374 0.835937,-0.6875 0.266482,-0.262134 0.497529,-0.547154 0.697266,-0.845703 l 0.002,-0.002 c 0.2114,-0.312436 0.380268,-0.640091 0.517578,-0.966796 l 0.002,-0.002 v -0.0039 c 0.142576,-0.344151 0.247052,-0.693115 0.31836,-1.044922 0.07398,-0.364976 0.107421,-0.732042 0.107421,-1.097656 0,-0.3626 -0.03342,-0.728727 -0.107421,-1.09375 -0.07052,-0.347895 -0.17342,-0.698825 -0.31836,-1.044922 -0.139945,-0.337799 -0.312503,-0.664159 -0.521484,-0.972656 -0.199929,-0.299 -0.43042,-0.585163 -0.697266,-0.847656 -0.255751,-0.255265 -0.535786,-0.486126 -0.835937,-0.689453 l -0.0078,-0.0059 -0.0078,-0.0059 C 64.566039,15.559687 64.248394,15.385 63.900391,15.244141 l -0.0059,-0.002 C 63.556764,15.100682 63.206916,14.99431 62.849609,14.921875 l -0.0059,-0.002 -0.0059,-0.002 C 62.490922,14.851424 62.128418,14.8125 61.755859,14.8125 Z m 0,2.238281 c 0.209567,0 0.42908,0.02308 0.648438,0.06445 0.0014,2.6e-4 0.0025,0.0017 0.0039,0.002 0.217253,0.04433 0.426778,0.106143 0.625,0.189454 l 0.0098,0.0039 0.0078,0.0039 c 0.188226,0.07529 0.378209,0.177192 0.572266,0.302734 0.180552,0.122848 0.350264,0.262374 0.505859,0.417969 l 0.0039,0.0039 0.0039,0.0039 c 0.151317,0.148516 0.283999,0.312716 0.410156,0.501953 l 0.002,0.0039 0.0039,0.0039 c 0.119143,0.175879 0.220024,0.363192 0.306641,0.572266 v 0.0039 l 0.002,0.002 c 0.0803,0.19107 0.141231,0.400645 0.1875,0.628907 0.0432,0.213102 0.06445,0.4251 0.06445,0.648437 0,0.228133 -0.02125,0.439195 -0.06445,0.652344 -0.04545,0.22421 -0.104718,0.428031 -0.1875,0.628906 -0.08892,0.211571 -0.192585,0.408826 -0.308594,0.580078 l -0.0039,0.0039 -0.002,0.002 c -0.126159,0.189237 -0.258842,0.35344 -0.410156,0.501953 l -0.0039,0.0039 -0.0039,0.0039 c -0.15038,0.150381 -0.31916,0.287012 -0.505859,0.414063 -0.184688,0.123126 -0.374905,0.225881 -0.583985,0.3125 h -0.0039 l -0.002,0.002 c -0.199538,0.08386 -0.404356,0.14602 -0.613281,0.185547 l -0.0098,0.002 -0.0078,0.002 c -0.204382,0.04199 -0.423173,0.0625 -0.646485,0.0625 -0.223312,0 -0.44112,-0.01969 -0.652343,-0.0625 l -0.0078,-0.002 -0.0059,-0.002 c -0.207126,-0.03919 -0.409983,-0.100039 -0.621094,-0.1875 -0.205849,-0.08691 -0.397081,-0.190501 -0.580078,-0.3125 -0.183746,-0.125025 -0.352901,-0.261026 -0.509766,-0.414063 l -0.0039,-0.0039 c -0.0013,-0.0013 -0.0026,-0.0026 -0.0039,-0.0039 -0.14921,-0.150236 -0.2822,-0.315879 -0.40625,-0.501953 l -0.002,-0.002 -0.0039,-0.0039 c -0.114932,-0.169663 -0.218267,-0.364884 -0.30664,-0.574219 l -0.002,-0.0059 c -0.08278,-0.200864 -0.142048,-0.404677 -0.1875,-0.628906 -0.0432,-0.213102 -0.06445,-0.424186 -0.06445,-0.652344 0,-0.223312 0.02125,-0.435288 0.06445,-0.648437 0.04628,-0.228292 0.107201,-0.437852 0.1875,-0.628907 l 0.002,-0.002 V 19.125 c 0.08662,-0.209077 0.187499,-0.396389 0.30664,-0.572266 l 0.0039,-0.0039 0.002,-0.0039 c 0.124049,-0.186074 0.257038,-0.351714 0.40625,-0.501953 l 0.0039,-0.0039 c 0.16317,-0.159711 0.334505,-0.299982 0.513672,-0.421875 0.0019,-0.0013 0.004,-0.0026 0.0059,-0.0039 0.192027,-0.123769 0.383416,-0.225732 0.56836,-0.300781 l 0.002,-0.002 h 0.0039 c 0.210526,-0.08722 0.416639,-0.151372 0.632812,-0.195313 h 0.002 c 0.224866,-0.04176 0.443363,-0.06445 0.652343,-0.06445 z"
       id="path25575" />
  </g>
  <path
     fill-rule="nonzero"
     fill="#ffffff"
     fill-opacity="1"
     stroke-width="2.23846"
     stroke-linecap="butt"
     stroke-linejoin="miter"
     stroke="#000000"
     stroke-opacity="1"
     stroke-miterlimit="4"
     d="m 28.923898,20.408521 c 0,0.34375 -0.03125,0.683593 -0.09766,1.019531 -0.07031,0.335937 -0.167969,0.664063 -0.300781,0.980469 -0.128907,0.316407 -0.289063,0.617188 -0.480469,0.902344 -0.191406,0.285156 -0.40625,0.550782 -0.648438,0.792969 -0.242187,0.242188 -0.507813,0.457032 -0.792969,0.648438 -0.285156,0.191406 -0.585937,0.351562 -0.902344,0.484375 -0.316406,0.128906 -0.644531,0.230469 -0.980469,0.296875 -0.335937,0.06641 -0.675781,0.09766 -1.019531,0.09766 -0.34375,0 -0.683594,-0.03125 -1.019531,-0.09766 -0.335938,-0.06641 -0.660157,-0.167969 -0.98047,-0.296875 -0.316406,-0.132813 -0.617187,-0.292969 -0.902344,-0.484375 -0.285156,-0.191406 -0.546875,-0.40625 -0.789062,-0.648438 -0.242188,-0.242187 -0.460938,-0.507813 -0.652344,-0.792969 -0.187501,-0.285156 -0.351563,-0.585937 -0.48047,-0.902344 -0.132812,-0.316406 -0.230468,-0.644532 -0.296874,-0.980469 -0.06641,-0.335938 -0.101563,-0.675781 -0.101563,-1.019531 0,-0.339844 0.03516,-0.679688 0.101563,-1.019532 0.06641,-0.335937 0.164062,-0.660156 0.296874,-0.976563 0.128907,-0.316406 0.292969,-0.621094 0.48047,-0.90625 0.191406,-0.285156 0.410156,-0.546875 0.652344,-0.789062 0.242187,-0.242188 0.503906,-0.460939 0.789062,-0.648438 0.285157,-0.191407 0.585938,-0.351563 0.902344,-0.484376 0.320313,-0.132812 0.644532,-0.230468 0.98047,-0.296874 0.335937,-0.06641 0.675781,-0.101563 1.019531,-0.101563 0.34375,0 0.683594,0.03516 1.019531,0.101563 0.335938,0.06641 0.664063,0.164062 0.980469,0.296874 0.316407,0.132813 0.617188,0.292969 0.902344,0.484376 0.285156,0.187499 0.550782,0.40625 0.792969,0.648438 0.242188,0.242187 0.457032,0.503906 0.648438,0.789062 0.191406,0.285156 0.351562,0.589844 0.480469,0.90625 0.132812,0.316407 0.230469,0.640626 0.300781,0.976563 0.06641,0.339844 0.09766,0.679688 0.09766,1.019532 z m 0,0"
     id="path22" />
  <path
     fill="none"
     stroke-width="1.49231"
     stroke-linecap="butt"
     stroke-linejoin="miter"
     stroke="#000000"
     stroke-opacity="1"
     stroke-miterlimit="10"
     d="M 65.857502,19.842114 H 76.127035"
     id="path24" />
  <path
     fill-rule="nonzero"
     fill="#000000"
     fill-opacity="1"
     d="m 82.095763,19.842102 -5.96875,1.992188 v -3.984375 z m 0,0"
     id="path26" />
  <g
     clip-path="url(#clip-1)"
     id="g30"
     transform="translate(-5.7714252,-21.001648)">
    <path
       fill="none"
       stroke-width="2"
       stroke-linecap="butt"
       stroke-linejoin="miter"
       stroke="#000000"
       stroke-opacity="1"
       stroke-miterlimit="10"
       d="m 117.76016,54.739051 -7.99936,2.669943 v -5.339885 z m 0,0"
       transform="scale(0.746154)"
       id="path28" />
  </g>
  <path
     fill-rule="nonzero"
     fill="#ffffff"
     fill-opacity="1"
     d="m 42.037169,12.08429 c -0.558594,0 -1.109375,0.05859 -1.683594,0.171875 V 9.0335081 c 0.578125,-0.07813 1.128906,-0.117187 1.683594,-0.117187 2.882812,0 5.507812,1.0976559 7.488281,2.9023439 l 1.457031,-1.460938 c 0.5,-0.4960939 1.351563,-0.144531 1.351563,0.5625 v 5.222656 c 0,0.433594 -0.359375,0.792969 -0.792969,0.792969 h -5.222656 c -0.703125,0 -1.0625,-0.859375 -0.558594,-1.355469 l 1.519531,-1.519531 C 45.880919,12.83429 44.048888,12.08429 42.037169,12.08429 Z m -7.925781,7.929687 c 0,0.554688 0.05469,1.089844 0.160156,1.609375 H 31.0567 c -0.07813,-0.527344 -0.117187,-1.0625 -0.117187,-1.609375 0,-2.839844 1.070312,-5.4375 2.828125,-7.398437 L 32.3067,11.150696 c -0.5,-0.496094 -0.148437,-1.3515629 0.515625,-1.3515629 h 5.265625 c 0.4375,0 0.792969,0.3554689 0.792969,0.7929689 v 5.21875 c 0,0.707031 -0.859375,1.058594 -1.351563,0.5625 l -1.519531,-1.515625 c -1.183594,1.386719 -1.898437,3.1875 -1.898437,5.15625 z m 4.210937,4.589844 -1.4375,1.433594 c 1.386719,1.1875 3.183594,1.902343 5.152344,1.902343 0.523437,0 1.035156,-0.05078 1.53125,-0.144531 v 3.210938 c -0.5,0.07031 -1.011719,0.105468 -1.53125,0.105468 -2.839844,0 -5.4375,-1.109375 -7.398438,-2.824218 l -1.539062,1.539062 c -0.5,0.5 -1.355469,0.144531 -1.355469,-0.558594 v -5.222656 c 0,-0.4375 0.355469,-0.792969 0.792969,-0.792969 h 5.21875 c 0.664062,0 1.058594,0.851563 0.566406,1.351563 z m 8.230469,-0.792969 1.433594,1.4375 c 1.234375,-1.390625 1.976562,-3.226562 1.976562,-5.234375 0,-0.535156 -0.04687,-1.058594 -0.152344,-1.5625 h 3.214844 c 0.07422,0.511719 0.109375,1.03125 0.109375,1.5625 0,2.882813 -1.097656,5.507813 -2.898437,7.484375 l 1.535156,1.535156 c 0.503906,0.5 0.144531,1.355469 -0.558594,1.355469 h -5.222656 c -0.433594,0 -0.792969,-0.359375 -0.792969,-0.792969 v -5.222656 c 0,-0.703125 0.851563,-1.0625 1.355469,-0.5625 z m 0,0"
     id="path8952" />
</svg>
