<?xml version="1.0" encoding="UTF-8" standalone="no"?>
<svg
   width="85.612999pt"
   height="41.056606pt"
   viewBox="0 0 85.612999 41.056606"
   version="1.1"
   id="svg34"
   sodipodi:docname="logo-white.svg"
   inkscape:version="1.2.2 (b0a8486541, 2022-12-01)"
   xmlns:inkscape="http://www.inkscape.org/namespaces/inkscape"
   xmlns:sodipodi="http://sodipodi.sourceforge.net/DTD/sodipodi-0.dtd"
   xmlns="http://www.w3.org/2000/svg"
   xmlns:svg="http://www.w3.org/2000/svg">
  <sodipodi:namedview
     id="namedview26070"
     pagecolor="#73ee26"
     bordercolor="#000000"
     borderopacity="0.25"
     inkscape:showpageshadow="2"
     inkscape:pageopacity="0"
     inkscape:pagecheckerboard="0"
     inkscape:deskcolor="#d1d1d1"
     inkscape:document-units="pt"
     showgrid="false"
     inkscape:zoom="15.59973"
     inkscape:cx="47.757236"
     inkscape:cy="32.308251"
     inkscape:window-width="2458"
     inkscape:window-height="2104"
     inkscape:window-x="2164"
     inkscape:window-y="882"
     inkscape:window-maximized="1"
     inkscape:current-layer="svg34" />
  <defs
     id="defs8">
    <clipPath
       id="clip-0">
      <path
         clip-rule="nonzero"
         d="M 0,0 H 98.878906 V 87.75 H 0 Z m 0,0"
         id="path2" />
    </clipPath>
    <clipPath
       id="clip-1">
      <path
         clip-rule="nonzero"
         d="M 50,7 H 98.878906 V 76 H 50 Z m 0,0"
         id="path5" />
    </clipPath>
  </defs>
  <path
     fill="none"
     stroke-width="2.25"
     stroke-linecap="butt"
     stroke-linejoin="miter"
     stroke="#ffffff"
     stroke-opacity="1"
     stroke-miterlimit="10"
     d="M 0.31421614,20.541691 H 9.0524984"
     id="path10" />
  <path
     fill-rule="nonzero"
     fill="#ffffff"
     fill-opacity="1"
     stroke-width="2.25"
     stroke-linecap="butt"
     stroke-linejoin="miter"
     stroke="#ffffff"
     stroke-opacity="1"
     stroke-miterlimit="10"
     d="m 15.802498,20.541691 -6.7499996,2.25 v -4.5 z m 0,0"
     id="path12" />
  <path
     fill-rule="nonzero"
     fill="#ffffff"
     fill-opacity="1"
     d="m 23.564216,9.2916887 c 0,-4.144531 3.359375,-7.5 7.5,-7.5 h 22.5 c 4.140625,0 7.5,3.355469 7.5,7.5 V 31.791689 c 0,4.140625 -3.359375,7.5 -7.5,7.5 h -22.5 c -4.140625,0 -7.5,-3.359375 -7.5,-7.5 z m 0,0"
     id="path14" />
  <g
     clip-path="url(#clip-0)"
     id="g18"
     transform="translate(-6.8107839,-21.321592)">
    <path
       fill="none"
       stroke-width="4"
       stroke-linecap="butt"
       stroke-linejoin="miter"
       stroke="#ffffff"
       stroke-opacity="1"
       stroke-miterlimit="10"
       d="m 40.000002,40.31771 c 0,-5.526042 4.479167,-10 10,-10 h 30.000001 c 5.520834,0 10.000001,4.473958 10.000001,10 v 30.000001 c 0,5.520834 -4.479167,10.000001 -10.000001,10.000001 H 50.000002 c -5.520833,0 -10,-4.479167 -10,-10.000001 z m 0,0"
       transform="matrix(0.75,0,0,0.75,0.375,0.375)"
       id="path16" />
  </g>
  <path
     fill-rule="nonzero"
     fill="#000000"
     fill-opacity="1"
     stroke-width="2.25"
     stroke-linecap="butt"
     stroke-linejoin="miter"
     stroke="#ffffff"
     stroke-opacity="1"
     stroke-miterlimit="4"
     d="m 66.314219,20.541691 c 0,0.296875 -0.02734,0.589843 -0.08594,0.878906 -0.0586,0.289062 -0.144532,0.570312 -0.257813,0.84375 -0.113281,0.273437 -0.25,0.535156 -0.414063,0.777344 -0.164062,0.246093 -0.351562,0.476562 -0.558593,0.683594 -0.210937,0.210937 -0.4375,0.394531 -0.683594,0.558593 -0.246094,0.164063 -0.503906,0.304688 -0.777344,0.417969 -0.273437,0.113282 -0.554687,0.199219 -0.84375,0.253907 -0.289062,0.0586 -0.582031,0.08594 -0.878906,0.08594 -0.296875,0 -0.589844,-0.02735 -0.878906,-0.08594 -0.289063,-0.05469 -0.570313,-0.140625 -0.84375,-0.253907 -0.273438,-0.113281 -0.531251,-0.253906 -0.777344,-0.417969 -0.246094,-0.164062 -0.472656,-0.347656 -0.683594,-0.558593 -0.207031,-0.207032 -0.394531,-0.437501 -0.558594,-0.683594 -0.164062,-0.242188 -0.300781,-0.503907 -0.414062,-0.777344 -0.113282,-0.273438 -0.199219,-0.554688 -0.257813,-0.84375 -0.0586,-0.289063 -0.08594,-0.582031 -0.08594,-0.878906 0,-0.292969 0.02734,-0.585938 0.08594,-0.875 0.0586,-0.289063 0.144531,-0.574219 0.257813,-0.84375 0.113281,-0.273438 0.25,-0.535157 0.414062,-0.781251 0.164063,-0.242187 0.351563,-0.472656 0.558594,-0.679687 0.210938,-0.210938 0.4375,-0.394532 0.683594,-0.558594 0.246093,-0.164063 0.503906,-0.304688 0.777344,-0.417968 0.273437,-0.113282 0.554687,-0.199219 0.84375,-0.253907 0.289062,-0.0586 0.582031,-0.08984 0.878906,-0.08984 0.296875,0 0.589844,0.03125 0.878906,0.08984 0.289063,0.05469 0.570313,0.140625 0.84375,0.253907 0.273438,0.11328 0.53125,0.253905 0.777344,0.417968 0.246094,0.164062 0.472657,0.347656 0.683594,0.558594 0.207031,0.207031 0.394531,0.4375 0.558593,0.679687 0.164063,0.246094 0.300782,0.507813 0.414063,0.781251 0.113281,0.269531 0.199219,0.554687 0.257813,0.84375 0.0586,0.289062 0.08594,0.582031 0.08594,0.875 z m 0,0"
     id="path20" />
  <path
     fill-rule="nonzero"
     fill="#000000"
     fill-opacity="1"
     stroke-width="2.25"
     stroke-linecap="butt"
     stroke-linejoin="miter"
     stroke="#ffffff"
     stroke-opacity="1"
     stroke-miterlimit="4"
     d="m 28.814218,20.541691 c 0,0.347656 -0.03515,0.687499 -0.101563,1.027343 -0.06641,0.335938 -0.167969,0.664063 -0.296875,0.984375 -0.132812,0.316406 -0.292969,0.621094 -0.488281,0.906251 -0.191406,0.289062 -0.40625,0.550781 -0.652344,0.796875 -0.242187,0.242187 -0.507813,0.460937 -0.792969,0.652344 -0.289062,0.191406 -0.589844,0.351562 -0.910156,0.484374 -0.316406,0.132813 -0.644531,0.230469 -0.984375,0.300782 -0.335938,0.0664 -0.679688,0.09766 -1.023437,0.09766 -0.343751,0 -0.687501,-0.03125 -1.023438,-0.09766 -0.339844,-0.07031 -0.667969,-0.167969 -0.984375,-0.300782 -0.320313,-0.132812 -0.621094,-0.292968 -0.910156,-0.484374 -0.285157,-0.191407 -0.550782,-0.410157 -0.792969,-0.652344 -0.246094,-0.246094 -0.460938,-0.507813 -0.652344,-0.796875 -0.195313,-0.285157 -0.355469,-0.589845 -0.488282,-0.906251 -0.128906,-0.320312 -0.230468,-0.648437 -0.296874,-0.984375 -0.06641,-0.339844 -0.101563,-0.679687 -0.101563,-1.027343 0,-0.343751 0.03515,-0.683594 0.101563,-1.023438 0.0664,-0.335937 0.167968,-0.664062 0.296874,-0.984375 0.132813,-0.316406 0.292969,-0.621094 0.488282,-0.90625 0.191406,-0.289063 0.40625,-0.554688 0.652344,-0.796875 0.242187,-0.242188 0.507812,-0.460938 0.792969,-0.652344 0.289062,-0.191406 0.589843,-0.351562 0.910156,-0.484375 0.316406,-0.132813 0.644531,-0.234375 0.984375,-0.300781 0.335937,-0.0664 0.679687,-0.101563 1.023438,-0.101563 0.343749,0 0.687499,0.03515 1.023437,0.101563 0.339844,0.0664 0.667969,0.167968 0.984375,0.300781 0.320312,0.132813 0.621094,0.292969 0.910156,0.484375 0.285156,0.191406 0.550782,0.410156 0.792969,0.652344 0.246094,0.242187 0.460938,0.507812 0.652344,0.796875 0.195312,0.285156 0.355469,0.589844 0.488281,0.90625 0.128906,0.320313 0.230469,0.648438 0.296875,0.984375 0.0664,0.339844 0.101563,0.679687 0.101563,1.023438 z m 0,0"
     id="path22" />
  <path
     fill="none"
     stroke-width="2.25"
     stroke-linecap="butt"
     stroke-linejoin="miter"
     stroke="#ffffff"
     stroke-opacity="1"
     stroke-miterlimit="10"
     d="m 66.314219,20.350284 h 8.738285"
     id="path24" />
  <path
     fill-rule="nonzero"
     fill="#ffffff"
     fill-opacity="1"
     d="m 81.802497,20.350283 -6.75,2.25 v -4.5 z m 0,0"
     id="path26" />
  <g
     clip-path="url(#clip-1)"
     id="g30"
     transform="translate(-6.8107839,-21.321592)">
    <path
       fill="none"
       stroke-width="3"
       stroke-linecap="butt"
       stroke-linejoin="miter"
       stroke="#ffffff"
       stroke-opacity="1"
       stroke-miterlimit="10"
       d="m 117.65105,55.062502 -9,3 v -6 z m 0,0"
       transform="matrix(0.75,0,0,0.75,0.375,0.375)"
       id="path28" />
  </g>
  <path
     fill-rule="nonzero"
     fill="#000000"
     fill-opacity="1"
     d="m 41.993904,12.174502 c -0.5625,0 -1.117188,0.0625 -1.691407,0.171875 V 9.1120017 c 0.582032,-0.08203 1.132813,-0.125 1.691407,-0.125 2.898437,0 5.539062,1.1054693 7.527343,2.9179693 l 1.460938,-1.464844 c 0.503906,-0.5000003 1.359375,-0.144531 1.359375,0.5625 v 5.25 c 0,0.4375 -0.355469,0.796875 -0.796875,0.796875 h -5.246094 c -0.707031,0 -1.066406,-0.859375 -0.5625,-1.359375 l 1.527344,-1.527344 c -1.40625,-1.234375 -3.246094,-1.988281 -5.269531,-1.988281 z m -7.964844,7.96875 c 0,0.558594 0.05469,1.097656 0.160156,1.617187 h -3.234375 c -0.07422,-0.527343 -0.113281,-1.0625 -0.113281,-1.617187 0,-2.855469 1.074219,-5.464844 2.839844,-7.4375 l -1.46875,-1.46875 c -0.503907,-0.5 -0.148438,-1.3593753 0.519531,-1.3593753 h 5.292969 c 0.4375,0 0.796875,0.3554693 0.796875,0.7968753 v 5.246094 c 0,0.710937 -0.863282,1.066406 -1.359375,0.566406 l -1.523438,-1.523438 c -1.191406,1.394532 -1.910156,3.203125 -1.910156,5.179688 z m 4.230469,4.617187 -1.445313,1.4375 c 1.394531,1.195313 3.203125,1.914063 5.179688,1.914063 0.527343,0 1.039062,-0.05078 1.539062,-0.144531 v 3.226562 c -0.503906,0.07031 -1.015625,0.105469 -1.539062,0.105469 -2.855469,0 -5.464844,-1.117188 -7.4375,-2.839844 l -1.546875,1.550781 c -0.503907,0.503907 -1.363282,0.144532 -1.363282,-0.5625 v -5.25 c 0,-0.4375 0.359375,-0.796875 0.796875,-0.796875 h 5.246094 c 0.667969,0 1.066406,0.855469 0.570313,1.359375 z m 8.273437,-0.796875 1.441406,1.445313 c 1.242188,-1.402344 1.988282,-3.242188 1.988282,-5.265625 0,-0.539063 -0.05078,-1.0625 -0.15625,-1.570313 h 3.234375 c 0.07422,0.515625 0.109375,1.039063 0.109375,1.570313 0,2.898437 -1.105469,5.539062 -2.914063,7.527344 l 1.542969,1.542968 c 0.503906,0.503907 0.144531,1.359375 -0.5625,1.359375 h -5.25 c -0.4375,0 -0.796875,-0.359375 -0.796875,-0.796875 v -5.25 c 0,-0.707031 0.859375,-1.066406 1.363281,-0.5625 z m 0,0"
     id="path32" />
</svg>
